<svg width="20" height="20" viewBox="0 0 20 20" fill="none" xmlns="http://www.w3.org/2000/svg">
<path fill-rule="evenodd" clip-rule="evenodd" d="M6.10866 1.66701H13.8912C16.7253 1.66701 18.3253 3.27451 18.3337 6.10867V13.892C18.3337 16.7253 16.7253 18.3337 13.8912 18.3337H6.10866C3.27449 18.3337 1.66699 16.7253 1.66699 13.892V6.10867C1.66699 3.27451 3.27449 1.66701 6.10866 1.66701ZM10.0412 14.8837C10.4003 14.8837 10.6995 14.617 10.7328 14.2587V5.76702C10.7662 5.50868 10.642 5.24952 10.417 5.10868C10.1828 4.96702 9.89951 4.96702 9.67534 5.10868C9.44951 5.24952 9.32534 5.50868 9.34951 5.76702V14.2587C9.39201 14.617 9.69117 14.8837 10.0412 14.8837ZM13.8753 14.8837C14.2253 14.8837 14.5245 14.617 14.567 14.2587V11.5253C14.5912 11.2578 14.467 11.0087 14.2412 10.867C14.017 10.7253 13.7337 10.7253 13.5003 10.867C13.2745 11.0087 13.1503 11.2578 13.1837 11.5253V14.2587C13.217 14.617 13.5162 14.8837 13.8753 14.8837ZM6.8495 14.2587C6.81617 14.617 6.517 14.8837 6.15783 14.8837C5.7995 14.8837 5.4995 14.617 5.467 14.2587V8.50035C5.442 8.24118 5.56617 7.98368 5.792 7.84201C6.01617 7.70035 6.30033 7.70035 6.52533 7.84201C6.7495 7.98368 6.87533 8.24118 6.8495 8.50035V14.2587Z" fill="#1E174D"/>
</svg>
