<svg width="16" height="13" viewBox="0 0 16 13" fill="none" xmlns="http://www.w3.org/2000/svg">
<path d="M5.76681 13C5.41852 13 5.0919 12.8601 4.84635 12.6058L0.381297 7.99431C-0.127099 7.47008 -0.127099 6.61697 0.381297 6.09204L1.43352 5.0053C1.9411 4.48023 2.7678 4.48023 3.27538 5.0053L5.76681 7.57845L12.7241 0.393803C13.2317 -0.131268 14.0584 -0.131268 14.566 0.393803L15.6182 1.48053C15.8646 1.73498 16 2.07231 16 2.43132C16 2.79019 15.8646 3.12836 15.6182 3.38196L6.68808 12.605C6.44185 12.8594 6.1151 13 5.76681 13ZM6.29292 12.1984H6.30041H6.29292ZM2.35411 5.76385C2.30642 5.76385 2.25886 5.78229 2.22234 5.82L1.17012 6.90673C1.09709 6.98202 1.09709 7.10348 1.17012 7.17877L5.63518 11.7903C5.70508 11.8633 5.82867 11.8633 5.89857 11.7903L14.8287 2.56727C14.9016 2.49197 14.9016 2.37052 14.8287 2.29523L13.7765 1.2085C13.7034 1.13307 13.5858 1.13307 13.5129 1.2085L6.16129 8.80127C5.94327 9.02644 5.58967 9.02644 5.37165 8.80127L2.48506 5.82071C2.44936 5.78229 2.40248 5.76385 2.35411 5.76385Z" fill="#9895a7"/>
</svg>
