<svg viewBox="0 0 18 20" fill="none" xmlns="http://www.w3.org/2000/svg">
  <path
    fill-rule="evenodd"
    clip-rule="evenodd"
    d="M11.607 0.0117C11.5639 0.00401204 11.5196 0 11.4743 0C11.429 0 11.3847 0.00401204 11.3416 0.0117H5.084C2.5967 0.0117 0.5 2.02953 0.5 4.4907V15.2037C0.5 17.8043 2.5046 19.8647 5.084 19.8647H13.073C15.5263 19.8647 17.552 17.7028 17.552 15.2037V6.0377C17.552 5.84408 17.4771 5.65797 17.343 5.5183L12.278 0.242299C12.1366 0.0949779 11.9412 0.0117 11.737 0.0117H11.607ZM10.7243 1.5109L5.084 1.5117C3.41254 1.5117 2 2.8711 2 4.4907V15.2037C2 16.9849 3.34239 18.3647 5.084 18.3647H13.073C14.6753 18.3647 16.052 16.8954 16.052 15.2037L16.0514 6.98309L15.1759 6.98607C14.8422 6.98567 14.4627 6.98496 14.0407 6.984C12.2712 6.98026 10.827 5.59329 10.7295 3.84739L10.7243 3.659V1.5109ZM15.2305 5.48384L14.044 5.484C13.0385 5.48188 12.2243 4.66546 12.2243 3.659V2.35245L15.2305 5.48384ZM11.2843 12.8076C11.6985 12.8076 12.0343 13.1434 12.0343 13.5576C12.0343 13.9373 11.7521 14.2511 11.3861 14.3008L11.2843 14.3076H5.8873C5.47309 14.3076 5.1373 13.9718 5.1373 13.5576C5.1373 13.1779 5.41945 12.8641 5.78553 12.8144L5.8873 12.8076H11.2843ZM9.9928 8.6054C9.9928 8.19119 9.65701 7.8554 9.2428 7.8554H5.8868L5.78503 7.86225C5.41895 7.91191 5.1368 8.2257 5.1368 8.6054C5.1368 9.01961 5.47259 9.3554 5.8868 9.3554H9.2428L9.34457 9.34855C9.71065 9.29889 9.9928 8.9851 9.9928 8.6054Z"
    fill="#9E97BE"
  />
</svg>
