<svg width="320" height="416" viewBox="0 0 320 416" fill="none" xmlns="http://www.w3.org/2000/svg">
<path d="M256 160C251.757 160 247.687 158.314 244.686 155.314C241.686 152.313 240 148.243 240 144V112C240 90.7827 231.571 70.4344 216.569 55.4315C201.566 40.4285 181.217 32 160 32C138.783 32 118.434 40.4285 103.431 55.4315C88.4285 70.4344 80 90.7827 80 112V144C80 148.243 78.3143 152.313 75.3137 155.314C72.3131 158.314 68.2435 160 64 160C59.7565 160 55.6869 158.314 52.6863 155.314C49.6857 152.313 48 148.243 48 144V112C48 82.2958 59.8 53.8081 80.804 32.804C101.808 11.8 130.296 0 160 0C189.704 0 218.192 11.8 239.196 32.804C260.2 53.8081 272 82.2958 272 112V144C272 148.243 270.314 152.313 267.314 155.314C264.313 158.314 260.243 160 256 160Z" fill="#606062"/>
<path d="M272 144H48C21.4903 144 0 165.49 0 192V368C0 394.51 21.4903 416 48 416H272C298.51 416 320 394.51 320 368V192C320 165.49 298.51 144 272 144Z" fill="#FF6347"/>
<path d="M208 256C208.037 247.192 205.65 238.543 201.1 231C196.549 223.458 190.011 217.314 182.202 213.239C174.392 209.165 165.612 207.319 156.822 207.902C148.033 208.485 139.574 211.476 132.371 216.546C125.168 221.616 119.499 228.571 115.985 236.648C112.471 244.725 111.248 253.614 112.449 262.34C113.649 271.067 117.228 279.294 122.794 286.122C128.359 292.95 135.695 298.115 144 301.051V336C144 340.243 145.686 344.313 148.686 347.314C151.687 350.314 155.757 352 160 352C164.243 352 168.313 350.314 171.314 347.314C174.314 344.313 176 340.243 176 336V301.051C185.332 297.764 193.418 291.669 199.148 283.603C204.877 275.536 207.97 265.894 208 256Z" fill="#F5F5F5"/>
</svg>
