<svg width="36" height="36" viewBox="0 0 36 36" fill="none" xmlns="http://www.w3.org/2000/svg">
<rect x="0.5" y="0.5" width="35" height="35" rx="17.5" fill="#6F61D0"/>
<path d="M20.4825 19.187L20.2376 19.5315L20.5364 19.8303L25.3499 24.6437C25.4394 24.7378 25.4888 24.8629 25.4877 24.9928C25.4866 25.1239 25.434 25.2493 25.3413 25.342C25.2486 25.4347 25.1232 25.4873 24.9921 25.4885C24.8622 25.4896 24.737 25.4401 24.643 25.3506L19.8306 20.5382L19.5317 20.2394L19.1873 20.4843C18.3644 21.0694 17.3964 21.4167 16.3893 21.4881C15.3822 21.5596 14.3748 21.3525 13.4776 20.8894C12.5804 20.4264 11.828 19.7253 11.3027 18.863C10.7775 18.0007 10.4998 17.0105 10.5 16.0009V16.0007C10.4999 15.1351 10.7041 14.2817 11.096 13.5099C11.4879 12.7381 12.0564 12.0697 12.7554 11.559C13.4543 11.0484 14.2639 10.7099 15.1183 10.5711C15.9727 10.4324 16.8478 10.4972 17.6724 10.7604C18.497 11.0237 19.2479 11.4778 19.8639 12.0859C20.4799 12.694 20.9437 13.4389 21.2175 14.2601C21.4914 15.0812 21.5675 15.9554 21.4398 16.8115C21.3121 17.6677 20.9841 18.4816 20.4825 19.187ZM16 11.5008C14.8065 11.5008 13.6619 11.9749 12.818 12.8188C11.9741 13.6627 11.5 14.8073 11.5 16.0008C11.5 17.1942 11.9741 18.3388 12.818 19.1827C13.6619 20.0267 14.8065 20.5008 16 20.5008C17.1935 20.5008 18.3381 20.0267 19.182 19.1827C20.0259 18.3388 20.5 17.1942 20.5 16.0008C20.5 14.8073 20.0259 13.6627 19.182 12.8188C18.3381 11.9749 17.1935 11.5008 16 11.5008Z" stroke="white"/>
<rect x="0.5" y="0.5" width="35" height="35" rx="17.5" stroke="#6F61D0"/>
</svg>
