<svg width="17" height="17" viewBox="0 0 17 17" fill="none" xmlns="http://www.w3.org/2000/svg">
<path fill-rule="evenodd" clip-rule="evenodd" d="M16.6036 8.35355C16.7988 8.54882 16.7988 8.8654 16.6036 9.06066L9.31066 16.3536C9.1154 16.5488 8.79882 16.5488 8.60355 16.3536C8.40829 16.1583 8.40829 15.8417 8.60355 15.6464L15.8964 8.35355C16.0917 8.15829 16.4083 8.15829 16.6036 8.35355Z" fill="#9895A7"/>
<path fill-rule="evenodd" clip-rule="evenodd" d="M16.6036 0.353553C16.7988 0.548815 16.7988 0.865397 16.6036 1.06066L1.31066 16.3536C1.1154 16.5488 0.798815 16.5488 0.603553 16.3536C0.408291 16.1583 0.408291 15.8417 0.603553 15.6464L15.8964 0.353553C16.0917 0.158291 16.4083 0.158291 16.6036 0.353553Z" fill="#9895A7"/>
</svg>