<svg width="20" height="20" viewBox="0 0 20 20" fill="none" xmlns="http://www.w3.org/2000/svg">
<path d="M12.4825 11.1863L12.2376 11.5307L12.5364 11.8296L17.3499 16.643C17.4394 16.737 17.4888 16.8622 17.4877 16.9921C17.4866 17.1232 17.434 17.2486 17.3413 17.3413C17.2486 17.434 17.1232 17.4866 16.9921 17.4877C16.8622 17.4889 16.737 17.4394 16.643 17.3499L11.8306 12.5375L11.5317 12.2386L11.1873 12.4835C10.3644 13.0686 9.3964 13.4159 8.38929 13.4874C7.38217 13.5589 6.37482 13.3517 5.47761 12.8887C4.5804 12.4256 3.82796 11.7246 3.30275 10.8623C2.77753 10 2.4998 9.00978 2.5 8.00013V7.99997C2.49989 7.13437 2.70409 6.28096 3.09599 5.50915C3.48789 4.73734 4.05643 4.06893 4.75536 3.55829C5.4543 3.04764 6.26389 2.70916 7.1183 2.5704C7.97271 2.43164 8.84781 2.4965 9.67243 2.75971C10.497 3.02292 11.2479 3.47705 11.8639 4.08516C12.4799 4.69327 12.9437 5.43819 13.2175 6.25934C13.4914 7.08049 13.5675 7.95468 13.4398 8.81081C13.3121 9.66694 12.9841 10.4808 12.4825 11.1863ZM8 3.50003C6.80653 3.50003 5.66193 3.97414 4.81802 4.81805C3.97411 5.66197 3.5 6.80656 3.5 8.00003C3.5 9.19351 3.97411 10.3381 4.81802 11.182C5.66193 12.0259 6.80653 12.5 8 12.5C9.19347 12.5 10.3381 12.0259 11.182 11.182C12.0259 10.3381 12.5 9.19351 12.5 8.00003C12.5 6.80656 12.0259 5.66197 11.182 4.81805C10.3381 3.97414 9.19347 3.50003 8 3.50003Z" fill="#736F8B" stroke="#9895A7"/>
</svg>
