<svg width="26" height="26" viewBox="0 0 26 26" fill="none" xmlns="http://www.w3.org/2000/svg">
<rect width="26" height="26" rx="13" fill="#6F61D0"/>
<path d="M21.3776 13.0087C21.3843 12.4963 21.1067 12.0253 20.6559 11.7781L10.1512 6.00649C9.68072 5.74057 9.12608 5.77324 8.68272 6.07599C8.23124 6.38383 8.00014 7.11667 8.12636 7.64596L9.10702 11.7545C9.20769 12.1758 9.58475 12.4725 10.0185 12.4706L15.8644 12.4525C16.1637 12.4465 16.4065 12.6893 16.4005 12.9886C16.3996 13.2829 16.1604 13.5221 15.861 13.5281L10.0096 13.5417C9.57585 13.5425 9.19694 13.8405 9.09365 14.2624L8.07832 18.3874C7.95504 18.8748 8.09559 19.3614 8.43953 19.7054C8.47999 19.7458 8.52551 19.7914 8.57106 19.8267C9.01647 20.1704 9.5998 20.2142 10.0978 19.9488L20.6382 14.2337C21.0905 13.9939 21.371 13.5212 21.3776 13.0087Z" fill="white"/>
</svg>
