<svg width="320" height="416" viewBox="0 0 320 416" fill="none" xmlns="http://www.w3.org/2000/svg">
<path d="M160 32C181.217 32 200.5 42.5 216.569 55.4315C221.212 60.2876 231.5 67 241.5 64.5C246.202 63.3245 251.75 56 250 49C248 41 241.631 35.036 239.196 32.804C218.192 11.8 189.704 0 160 0C130.296 0 101.808 11.8 80.804 32.804C59.8 53.8081 48 82.2958 48 112V144C48 148.243 49.6857 152.313 52.6863 155.314C55.6869 158.314 59.7565 160 64 160C68.2435 160 72.3131 158.314 75.3137 155.314C78.3143 152.313 80 148.243 80 144V112C80 90.7827 88.4285 70.4344 103.431 55.4315C118.434 40.4285 138.783 32 160 32Z" fill="#B2B1FF"/>
<path d="M272 144H48C21.4903 144 0 165.49 0 192V368C0 394.51 21.4903 416 48 416H272C298.51 416 320 394.51 320 368V192C320 165.49 298.51 144 272 144Z" fill="#6563FF"/>
<path d="M208 256C208.037 247.192 205.65 238.543 201.1 231C196.549 223.458 190.011 217.314 182.202 213.239C174.392 209.165 165.612 207.319 156.822 207.902C148.033 208.485 139.574 211.476 132.371 216.546C125.168 221.616 119.499 228.571 115.985 236.648C112.471 244.725 111.248 253.614 112.449 262.34C113.649 271.067 117.228 279.294 122.794 286.122C128.359 292.95 135.695 298.115 144 301.051V336C144 340.243 145.686 344.313 148.686 347.314C151.687 350.314 155.757 352 160 352C164.243 352 168.313 350.314 171.314 347.314C174.314 344.313 176 340.243 176 336V301.051C185.332 297.764 193.418 291.669 199.148 283.603C204.877 275.536 207.97 265.894 208 256Z" fill="#F5F5F5"/>
</svg>
