<svg width="24" height="24" viewBox="0 0 24 24" fill="none" xmlns="http://www.w3.org/2000/svg">
<path fill-rule="evenodd" clip-rule="evenodd" d="M12.058 2.00008C8.54635 1.98597 5.28554 3.80685 3.46059 6.79994C1.63541 9.79342 1.51288 13.5225 3.13765 16.629L3.32147 16.9873C3.39175 17.1191 3.40531 17.2612 3.36458 17.3925C3.10204 18.0863 2.87136 18.8356 2.6873 19.5968L2.66776 19.7608C2.66776 20.5262 3.07616 21.0521 3.88671 21.0341L4.02167 21.0179C4.75798 20.8553 5.4831 20.6458 6.19261 20.3907C6.28665 20.3669 6.4407 20.3762 6.57971 20.433L7.26224 20.8193C7.26378 20.824 7.26493 20.8276 7.27208 20.8318L7.31788 20.8478C10.9929 22.7802 15.4812 22.2471 18.5997 19.5077C21.7187 16.7679 22.8199 12.39 21.3675 8.50371C19.9153 4.61787 16.2115 2.03061 12.058 2.00008ZM11.7675 3.39887L12.0484 3.39447C15.6231 3.42166 18.8109 5.64845 20.0605 8.99219C21.31 12.3355 20.3626 16.1019 17.6788 18.4594L17.4587 18.6464C14.8626 20.7779 11.2582 21.2075 8.23269 19.7466L7.94496 19.6024L7.95729 19.6041L7.93909 19.5991L7.51677 19.3568C7.36471 19.2708 7.24408 19.2057 7.14685 19.1589C6.6837 18.968 6.21354 18.9398 5.77133 19.0616L5.35272 19.2054C5.07605 19.2967 4.80372 19.3793 4.53273 19.454L4.13767 19.5571L4.04356 19.9247C4.21419 19.219 4.42804 18.5245 4.68389 17.8449C4.84853 17.3181 4.79818 16.7904 4.55755 16.3401L4.37662 15.9872C2.97627 13.3097 3.08168 10.1017 4.65196 7.52633C6.17338 5.03105 8.85494 3.4822 11.7675 3.39887ZM6.4746 12C6.4746 11.3698 6.98586 10.8594 7.61596 10.8594C8.24606 10.8594 8.75732 11.3698 8.75732 12C8.75732 12.6303 8.24606 13.1407 7.61596 13.1407C6.98586 13.1407 6.4746 12.6303 6.4746 12ZM10.9115 12C10.9115 11.3698 11.4227 10.8594 12.0528 10.8594C12.6829 10.8594 13.1942 11.3698 13.1942 12C13.1942 12.6303 12.6829 13.1407 12.0528 13.1407C11.4227 13.1407 10.9115 12.6303 10.9115 12ZM16.4897 10.8594C15.8596 10.8594 15.3484 11.3698 15.3484 12C15.3484 12.6303 15.8596 13.1407 16.4897 13.1407C17.1198 13.1407 17.6311 12.6303 17.6311 12C17.6311 11.3698 17.1198 10.8594 16.4897 10.8594Z" fill="#9E97BE"/>
</svg>
