<svg width="16" height="16" viewBox="0 0 16 16" fill="none" xmlns="http://www.w3.org/2000/svg">
<path d="M13.3334 5.33333V4C13.3334 2.9 12.4334 2 11.3334 2H4.66675C3.56675 2 2.66675 2.9 2.66675 4V5.33333C1.56675 5.33333 0.666748 6.23333 0.666748 7.33333V10.6667C0.666748 11.7667 1.56675 12.6667 2.66675 12.6667V13.3333C2.66675 13.7 2.96675 14 3.33341 14C3.70008 14 4.00008 13.7 4.00008 13.3333V12.6667H12.0001V13.3333C12.0001 13.7 12.3001 14 12.6667 14C13.0334 14 13.3334 13.7 13.3334 13.3333V12.6667C14.4334 12.6667 15.3334 11.7667 15.3334 10.6667V7.33333C15.3334 6.23333 14.4334 5.33333 13.3334 5.33333ZM4.00008 4C4.00008 3.63333 4.30008 3.33333 4.66675 3.33333H11.3334C11.7001 3.33333 12.0001 3.63333 12.0001 4V5.85333C11.5934 6.22 11.3334 6.74667 11.3334 7.33333V8.66667H4.66675V7.33333C4.66675 6.74667 4.40675 6.22 4.00008 5.85333V4ZM14.0001 10.6667C14.0001 11.0333 13.7001 11.3333 13.3334 11.3333H2.66675C2.30008 11.3333 2.00008 11.0333 2.00008 10.6667V7.33333C2.00008 6.96667 2.30008 6.66667 2.66675 6.66667C3.03341 6.66667 3.33341 6.96667 3.33341 7.33333V10H12.6667V7.33333C12.6667 6.96667 12.9667 6.66667 13.3334 6.66667C13.7001 6.66667 14.0001 6.96667 14.0001 7.33333V10.6667Z" fill="white"/>
</svg>
