<svg width="16" height="16" viewBox="0 0 16 16" fill="none" xmlns="http://www.w3.org/2000/svg">
<path d="M13.1066 9.33325C12.6666 10.6133 11.6133 11.6933 10.1733 12.2599L9.33325 12.5933V13.3333H6.66659V12.5933L5.81992 12.2599C4.37992 11.6933 3.32659 10.6133 2.88659 9.33325H13.1066ZM14.6666 1.33325L2.66659 2.65992V7.99992H1.33325C1.33325 10.4599 2.97992 12.5733 5.33325 13.4999V14.6666H10.6666V13.4999C13.0199 12.5733 14.6666 10.4599 14.6666 7.99992H6.99992V5.33325H14.6666V4.33325H6.99992V3.18659L14.6666 2.33992V1.33325ZM5.33325 4.33325V3.37325L5.99992 3.29992V4.33325H5.33325ZM3.66659 4.33325V3.55992L4.33325 3.48659V4.33325H3.66659ZM5.33325 7.99992V5.33325H5.99992V7.99992H5.33325ZM3.66659 7.99992V5.33325H4.33325V7.99992H3.66659Z" fill="white"/>
</svg>
