<svg width="16" height="16" viewBox="0 0 16 16" fill="none" xmlns="http://www.w3.org/2000/svg">
<path d="M9.69997 3.49992C10.4333 3.49992 11.0333 2.89992 11.0333 2.16659C11.0333 1.43325 10.4333 0.833252 9.69997 0.833252C8.96663 0.833252 8.36663 1.43325 8.36663 2.16659C8.36663 2.89992 8.96663 3.49992 9.69997 3.49992ZM7.29997 12.7666L7.96663 9.83325L9.36663 11.1666V15.1666H10.7V10.1666L9.29997 8.83325L9.69997 6.83325C10.5666 7.83325 11.9 8.49992 13.3666 8.49992V7.16659C12.1 7.16659 11.0333 6.49992 10.5 5.56659L9.8333 4.49992C9.56663 4.09992 9.16663 3.83325 8.69997 3.83325C8.49997 3.83325 8.36663 3.89992 8.16663 3.89992L4.69997 5.36659V8.49992H6.0333V6.23325L7.2333 5.76659L6.16663 11.1666L2.89997 10.4999L2.6333 11.8333L7.29997 12.7666Z" fill="white"/>
</svg>
