<svg width="16" height="16" viewBox="0 0 16 16" fill="none" xmlns="http://www.w3.org/2000/svg">
<path d="M12.3333 2.50008C12.3333 3.23341 11.7333 3.83341 10.9999 3.83341C10.2666 3.83341 9.66659 3.23341 9.66659 2.50008C9.66659 1.76675 10.2666 1.16675 10.9999 1.16675C11.7333 1.16675 12.3333 1.76675 12.3333 2.50008ZM10.5199 13.4334L11.0266 13.6134C11.4399 13.7534 11.8733 13.8334 12.3333 13.8334C12.8933 13.8334 13.4333 13.7134 13.9199 13.5001L14.6666 14.2534C13.9666 14.6201 13.1733 14.8334 12.3333 14.8334C11.7599 14.8334 11.2133 14.7401 10.6999 14.5601L1.33325 11.1467L1.66659 10.2067L6.26659 11.8801L7.41325 8.92008L5.03325 6.43341C4.43992 5.80675 4.58659 4.78675 5.33325 4.35341L7.65325 3.01341C8.38659 2.58675 9.33325 2.94675 9.59325 3.75341L9.81325 4.47341C10.1066 5.42008 10.7999 6.18675 11.6999 6.56675L12.0466 5.50008L12.9999 5.80675L12.2533 8.10675C10.6199 7.84008 9.26659 6.72675 8.66659 5.22675L6.97992 6.19341L8.99992 8.50008L7.51992 12.3401L9.57992 13.0867L10.9799 8.79341C11.2866 8.91341 11.6066 9.00008 11.9399 9.06675L10.5199 13.4334Z" fill="white"/>
</svg>
