<svg width="36" height="36" viewBox="0 0 36 36" fill="none" xmlns="http://www.w3.org/2000/svg">
<g clip-path="url(#clip0_5331_33984)">
<path d="M17.74 35.48C27.5375 35.48 35.48 27.5375 35.48 17.74C35.48 7.94247 27.5375 0 17.74 0C7.94247 0 0 7.94247 0 17.74C0 27.5375 7.94247 35.48 17.74 35.48Z" fill="#01BC71"/>
<path d="M10.42 6.95011H10.26C10.19 6.95011 10.11 7.00011 10.08 6.95011C10.0716 6.92201 10.073 6.89189 10.0839 6.86466C10.0948 6.83743 10.1146 6.81468 10.14 6.80011C10.29 6.69011 10.42 6.59011 10.22 6.40011C10.22 6.40011 10.22 6.30011 10.28 6.26011C10.3757 6.12963 10.4968 6.01984 10.636 5.93735C10.7752 5.85486 10.9296 5.80138 11.09 5.78011C11.91 5.69011 12.73 5.62011 13.54 5.49011C14.4517 5.26392 15.3927 5.17959 16.33 5.24011C17.4513 5.24234 18.5662 5.40739 19.64 5.73011C19.7187 5.75043 19.8013 5.75043 19.88 5.73011C20.2386 5.69644 20.6002 5.73483 20.9437 5.84303C21.2872 5.95122 21.6055 6.12703 21.88 6.36011C22.1626 6.54207 22.4942 6.63283 22.83 6.62011C22.9049 6.61534 22.9766 6.58793 23.0355 6.54149C23.0945 6.49505 23.1379 6.4318 23.16 6.36011C23.27 6.06011 23.38 5.75011 23.46 5.44011C23.5812 4.95725 23.859 4.52819 24.25 4.22011C24.85 3.75011 25.43 4.00011 26 4.31011C26.2681 4.48986 26.4906 4.72951 26.65 5.01011C26.7169 5.12379 26.7521 5.25325 26.7521 5.38511C26.7521 5.51697 26.7169 5.64644 26.65 5.76011C26.462 6.23952 26.305 6.73053 26.18 7.23011C26.1714 7.28675 26.1498 7.34062 26.1168 7.38748C26.0838 7.43433 26.0404 7.47289 25.99 7.50011C25.71 7.60011 25.63 7.84011 25.53 8.07011C25.37 8.46011 25.29 8.49011 24.91 8.30011C24.53 8.11011 24.16 8.09011 23.91 8.49011C23.874 8.53226 23.8469 8.58126 23.8304 8.63417C23.8139 8.68708 23.8082 8.7428 23.8138 8.79794C23.8194 8.85309 23.8362 8.90653 23.863 8.95503C23.8899 9.00353 23.9263 9.04608 23.97 9.08011C24.2826 9.3597 24.5331 9.70172 24.7054 10.0841C24.8776 10.4665 24.9678 10.8807 24.97 11.3001C25.0308 11.8073 25.1447 12.3068 25.31 12.7901C25.31 12.9501 25.5 13.0001 25.67 13.0101C26.6161 13.0122 27.5276 12.6548 28.22 12.0101C28.2508 11.9827 28.2749 11.9487 28.2905 11.9106C28.3061 11.8724 28.3128 11.8312 28.31 11.7901C28.3185 11.4083 28.3519 11.0275 28.41 10.6501C28.41 10.5701 28.41 10.4401 28.49 10.4201C28.57 10.4001 28.68 10.5101 28.72 10.6301C28.85 11.0001 28.86 11.0101 29.14 10.7201C29.42 10.4301 29.51 10.2801 29.71 10.0801C29.91 9.88011 29.95 9.72011 30.12 10.0801C30.46 9.92011 30.4 10.2301 30.53 10.3701C30.66 10.5101 30.59 10.6201 30.53 10.7201C30.47 10.8201 30.24 11.0101 30.11 11.1701C29.98 11.3301 29.97 11.3501 30.06 11.4501C30.15 11.5501 30.25 11.4501 30.35 11.4501C30.48 11.4001 30.68 11.2201 30.73 11.3401C30.78 11.4601 30.54 11.5701 30.42 11.6201C30.1183 11.7597 29.8359 11.9378 29.58 12.1501C28.36 12.9801 27.39 14.1501 26.04 14.8101L25.61 15.0301C24.98 15.3201 25.01 15.3801 24.61 14.7601C24.21 14.1401 23.72 13.3801 23.29 12.6801C23.01 12.2201 23 12.2001 22.58 12.6801C22.16 13.1601 21.72 13.7701 21.24 14.2701C20.9411 14.5773 20.7065 14.9411 20.55 15.3401C20.37 15.8101 20.41 15.9601 20.86 16.1601C21.9313 16.7131 22.9376 17.3839 23.86 18.1601C24.0373 18.2942 24.2014 18.4449 24.35 18.6101C24.4794 18.7291 24.5828 18.8736 24.6534 19.0345C24.7241 19.1955 24.7606 19.3693 24.7606 19.5451C24.7606 19.7209 24.7241 19.8947 24.6534 20.0557C24.5828 20.2166 24.4794 20.3612 24.35 20.4801C23.8254 21.0814 23.2536 21.6398 22.64 22.1501C21.99 22.7301 21.31 23.2701 20.64 23.8301C20.3893 24.057 20.1736 24.3199 20 24.6101C19.9109 24.7706 19.8782 24.9565 19.9072 25.1378C19.9362 25.3191 20.0253 25.4854 20.16 25.6101C20.23 25.6101 20.3 25.6901 20.37 25.6101C20.44 25.5301 20.37 25.5401 20.37 25.5301C20.37 25.5201 20.25 25.5301 20.2 25.6001C20.169 25.6278 20.1441 25.6617 20.1269 25.6996C20.1097 25.7375 20.1005 25.7785 20.1 25.8201C20.0871 26.1221 20.1589 26.4217 20.3074 26.685C20.4558 26.9483 20.675 27.1649 20.94 27.3101C21.1 27.4101 21.4 27.4501 21.29 27.7301C21.18 28.0101 20.93 27.9001 20.71 27.8901C20.2069 27.8174 19.7294 27.6216 19.32 27.3201L17.44 26.1501C17.3725 26.1057 17.3089 26.0555 17.25 26.0001C16.87 25.6701 16.86 25.5701 17.25 25.2401C18.2606 24.4562 19.1857 23.568 20.01 22.5901C20.3357 22.2066 20.6113 21.7832 20.83 21.3301C21.0475 20.8775 21.3698 20.4833 21.77 20.1801C21.86 20.1101 21.94 20.0301 21.92 19.9201C21.9 19.8101 21.79 19.8001 21.7 19.8001C20.602 19.7114 19.5251 19.4481 18.51 19.0201C18.4328 18.9808 18.3447 18.9683 18.2596 18.9846C18.1745 19.0008 18.0972 19.045 18.04 19.1101C17.0759 20.0075 16.05 20.8362 14.97 21.5901C14.6067 21.8437 14.2715 22.1354 13.97 22.4601C13.6018 22.8371 13.1334 23.1009 12.62 23.2201C11.8608 23.5021 11.1307 23.8571 10.44 24.2801C9.75003 24.6501 9.08003 25.0601 8.44003 25.4401C8.28003 25.5301 8.09003 25.5801 7.94003 25.6701C7.60003 25.8701 7.24003 26.0601 7.19003 26.5101C7.14003 26.9601 6.85003 27.0701 6.63003 27.2701C6.41003 27.4701 6.29004 27.7101 6.07004 27.8901C5.97272 27.9824 5.89984 28.0974 5.85795 28.2248C5.81607 28.3523 5.80647 28.4881 5.83003 28.6201C5.83003 28.8501 5.83003 29.0901 5.83003 29.3201C5.83594 29.3725 5.82446 29.4253 5.79735 29.4705C5.77024 29.5157 5.72901 29.5507 5.68003 29.5701C5.629 29.5846 5.57498 29.5848 5.52385 29.5707C5.47272 29.5565 5.42644 29.5287 5.39004 29.4901C5.11484 29.2218 4.93561 28.8704 4.88003 28.4901C4.79003 27.6901 4.71003 26.8901 4.68003 26.0801C4.65695 25.7472 4.65695 25.413 4.68003 25.0801C4.68003 24.8101 4.84004 24.7201 5.10004 24.7601C5.23652 24.7503 5.37354 24.7503 5.51003 24.7601C5.8252 24.851 6.15787 24.8629 6.47874 24.7949C6.79961 24.7269 7.09883 24.581 7.35004 24.3701C8.04499 23.8666 8.70948 23.3223 9.34003 22.7401C9.97458 22.162 10.7293 21.7317 11.55 21.4801C11.8609 21.3878 12.1298 21.1897 12.31 20.9201C13.04 19.9201 13.93 19.0301 14.74 18.0801C14.8467 17.9764 14.9311 17.8519 14.9878 17.7143C15.0446 17.5767 15.0726 17.4289 15.07 17.2801C15.0419 16.7675 15.0993 16.2538 15.24 15.7601C15.3369 15.4504 15.5126 15.1713 15.75 14.9501C16.19 14.5301 16.66 14.1301 17.07 13.6801C17.7402 12.8425 18.2458 11.8857 18.56 10.8601C18.8466 9.92881 19.0738 8.98023 19.24 8.02011C19.3 7.74011 19.24 7.61011 18.91 7.51011C18.3072 7.33862 17.7291 7.08989 17.19 6.77011C16.8138 6.53811 16.3653 6.45268 15.93 6.53011C15.2977 6.61492 14.6557 6.59465 14.03 6.47011C13.5021 6.36649 12.9548 6.43666 12.47 6.67011C12.3713 6.72888 12.2888 6.81138 12.23 6.91011C11.921 7.20246 11.5476 7.41824 11.14 7.54011C11.03 7.54011 10.91 7.54011 10.98 7.39011C11.05 7.24011 11.05 7.23011 10.98 7.18011C10.91 7.13011 10.81 7.18011 10.74 7.25011C10.67 7.32011 10.6 7.38011 10.49 7.34011C10.38 7.30011 10.6 7.14011 10.58 7.02011C10.56 6.90011 10.64 6.94011 10.58 6.89011C10.52 6.84011 10.46 6.86011 10.42 6.95011Z" fill="#F7FCFC"/>
</g>
<defs>
<clipPath id="clip0_5331_33984">
<rect width="35.49" height="35.49" fill="white"/>
</clipPath>
</defs>
</svg>
