<svg width="16" height="16" viewBox="0 0 16 16" fill="none" xmlns="http://www.w3.org/2000/svg">
<path d="M12.12 6.66675L10.9867 3.54675C10.7933 3.02008 10.2933 2.66675 9.73333 2.66675H8V4.00008H9.73333L10.7067 6.66675H7.5L7.26 6.00008H8V4.66675H4.66667V6.00008H5.83333L7.04667 9.33341H6.6C6.30667 7.84675 5.06 6.74675 3.5 6.67341C1.63333 6.58008 0 8.13341 0 10.0001C0 11.8667 1.46667 13.3334 3.33333 13.3334C4.97333 13.3334 6.3 12.2067 6.6 10.6667H9.4C9.69333 12.1534 10.94 13.2534 12.5 13.3267C14.3667 13.4134 16 11.8667 16 9.99341C16 8.12675 14.5333 6.66008 12.6667 6.66008H12.12V6.66675ZM5.21333 10.6667C4.94667 11.4467 4.22 12.0001 3.33333 12.0001C2.21333 12.0001 1.33333 11.1201 1.33333 10.0001C1.33333 8.88008 2.21333 8.00008 3.33333 8.00008C4.22 8.00008 4.94667 8.55341 5.21333 9.33341H3.33333V10.6667H5.21333ZM9.4 9.33341H8.46667L7.98 8.00008H10C9.70667 8.38675 9.49333 8.83341 9.4 9.33341ZM12.6667 12.0001C11.5467 12.0001 10.6667 11.1201 10.6667 10.0001C10.6667 9.38008 10.94 8.84675 11.3667 8.48008L12.0067 10.2401L13.26 9.78675L12.6133 8.00675C12.6333 8.00675 12.6533 8.00008 12.6733 8.00008C13.7933 8.00008 14.6733 8.88008 14.6733 10.0001C14.6733 11.1201 13.7867 12.0001 12.6667 12.0001Z" fill="white"/>
</svg>
