<svg width="16" height="16" viewBox="0 0 16 16" fill="none" xmlns="http://www.w3.org/2000/svg">
<path d="M6.66659 5.33344L4.49992 7.50011C4.70659 7.58011 4.87325 7.68011 5.01325 7.76011C5.25992 7.91344 5.40659 8.00011 5.77992 8.00011C6.15325 8.00011 6.29992 7.91344 6.54659 7.76011C6.85325 7.58011 7.26659 7.33344 8.00659 7.33344C8.74659 7.33344 9.15992 7.58011 9.45992 7.76011C9.70658 7.90677 9.85992 8.00011 10.2266 8.00011C10.5933 8.00011 10.7466 7.91344 10.9933 7.76011C11.0733 7.71344 11.1666 7.66011 11.2666 7.60677L6.98659 3.33344C5.95325 2.30011 4.99992 1.99344 3.33325 2.00011V3.66677C4.54659 3.66011 5.25992 3.92677 5.99992 4.66677L6.66659 5.33344ZM3.56659 10.3334C3.93325 10.3334 4.08659 10.4268 4.33325 10.5734C4.63325 10.7534 5.04659 11.0001 5.78659 11.0001C6.52659 11.0001 6.93992 10.7534 7.23992 10.5734C7.48659 10.4201 7.63325 10.3334 8.00659 10.3334C8.37325 10.3334 8.52659 10.4268 8.77325 10.5734C9.07325 10.7534 9.48659 11.0001 10.2266 11.0001C10.9666 11.0001 11.3799 10.7534 11.6799 10.5734C11.9266 10.4201 12.0733 10.3334 12.4466 10.3334C12.8133 10.3334 12.9666 10.4268 13.2133 10.5734C13.5133 10.7534 13.9199 10.9934 14.6533 11.0001V9.66677C14.2866 9.66677 14.1333 9.57344 13.8866 9.42677C13.5866 9.24677 13.1733 9.00011 12.4333 9.00011C11.6933 9.00011 11.2799 9.24677 10.9799 9.42677C10.7333 9.58011 10.5799 9.66677 10.2133 9.66677C9.84659 9.66677 9.69325 9.57344 9.44659 9.42677C9.14659 9.24677 8.73325 9.00011 7.99325 9.00011C7.25325 9.00011 6.83992 9.24677 6.53992 9.42677C6.29325 9.58011 6.14659 9.66677 5.77325 9.66677C5.40659 9.66677 5.25325 9.57344 5.00659 9.42677C4.70659 9.24677 4.29325 9.00011 3.55325 9.00011C2.81325 9.00011 2.39992 9.24677 2.09992 9.42677C1.85325 9.58011 1.70659 9.66677 1.33325 9.66677V11.0001C2.07325 11.0001 2.48659 10.7534 2.79992 10.5734C3.04659 10.4201 3.19992 10.3334 3.56659 10.3334ZM12.4466 12.0001C11.7066 12.0001 11.2933 12.2468 10.9933 12.4268C10.7466 12.5801 10.5933 12.6668 10.2266 12.6668C9.85992 12.6668 9.70658 12.5734 9.45992 12.4268C9.15992 12.2468 8.74659 12.0001 8.00659 12.0001C7.26659 12.0001 6.85325 12.2468 6.54659 12.4268C6.29992 12.5801 6.15325 12.6668 5.77992 12.6668C5.40659 12.6668 5.25992 12.5801 5.01325 12.4268C4.71325 12.2468 4.29992 12.0001 3.55992 12.0001C2.81992 12.0001 2.40659 12.2468 2.09992 12.4268C1.85325 12.5801 1.70659 12.6668 1.33325 12.6668V14.0001C2.07325 14.0001 2.48659 13.7534 2.79325 13.5734C3.03992 13.4201 3.19325 13.3334 3.55992 13.3334C3.92659 13.3334 4.07992 13.4201 4.32659 13.5734C4.62659 13.7534 5.03992 14.0001 5.77992 14.0001C6.51992 14.0001 6.93325 13.7534 7.23992 13.5734C7.48659 13.4201 7.63325 13.3334 8.00659 13.3334C8.37325 13.3334 8.52659 13.4268 8.77325 13.5734C9.07325 13.7534 9.48659 14.0001 10.2266 14.0001C10.9666 14.0001 11.3733 13.7534 11.6799 13.5734C11.9266 13.4201 12.0733 13.3334 12.4466 13.3334C12.8133 13.3334 12.9666 13.4268 13.2133 13.5734C13.5133 13.7534 13.9266 14.0001 14.6666 14.0001V12.6668C14.2933 12.6668 14.1466 12.5801 13.8999 12.4268C13.5999 12.2468 13.1866 12.0001 12.4466 12.0001Z" fill="white"/>
<path d="M10.9999 5.33344C11.9204 5.33344 12.6666 4.58725 12.6666 3.66677C12.6666 2.7463 11.9204 2.00011 10.9999 2.00011C10.0794 2.00011 9.33325 2.7463 9.33325 3.66677C9.33325 4.58725 10.0794 5.33344 10.9999 5.33344Z" fill="white"/>
</svg>
