<svg width="16" height="16" viewBox="0 0 16 16" fill="none" xmlns="http://www.w3.org/2000/svg">
<path d="M6.33325 7.99674C6.33325 8.36341 6.03325 8.66341 5.66659 8.66341C5.29992 8.66341 4.99992 8.36341 4.99992 7.99674C4.99992 7.63008 5.29992 7.33008 5.66659 7.33008C6.03325 7.33008 6.33325 7.63008 6.33325 7.99674ZM9.16659 6.66341C9.53325 6.66341 9.83325 6.36341 9.83325 5.99674C9.83325 5.63008 9.53325 5.33008 9.16659 5.33008C8.79992 5.33008 8.49992 5.63008 8.49992 5.99674C8.49992 6.36341 8.79992 6.66341 9.16659 6.66341ZM6.83325 6.66341C7.19992 6.66341 7.49992 6.36341 7.49992 5.99674C7.49992 5.63008 7.19992 5.33008 6.83325 5.33008C6.46659 5.33008 6.16659 5.63008 6.16659 5.99674C6.16659 6.36341 6.46659 6.66341 6.83325 6.66341ZM6.83325 9.33008C6.46659 9.33008 6.16659 9.63008 6.16659 9.99674C6.16659 10.3634 6.46659 10.6634 6.83325 10.6634C7.19992 10.6634 7.49992 10.3634 7.49992 9.99674C7.49992 9.63008 7.19992 9.33008 6.83325 9.33008ZM14.6666 7.49674V8.49674C14.6666 8.77008 14.4399 8.99674 14.1666 8.99674C13.8933 8.99674 13.6666 8.77008 13.6666 8.49674H12.6399C12.5399 9.41008 12.1799 10.2501 11.6266 10.9301L12.3533 11.6567L12.3599 11.6501C12.5533 11.4567 12.8733 11.4567 13.0666 11.6501C13.2599 11.8434 13.2599 12.1634 13.0666 12.3567L12.3599 13.0634C12.1666 13.2567 11.8466 13.2567 11.6533 13.0634C11.4599 12.8701 11.4599 12.5567 11.6466 12.3634L10.9199 11.6367C10.2399 12.1834 9.40659 12.5434 8.49325 12.6434V13.6701H8.49992C8.77325 13.6701 8.99992 13.8967 8.99992 14.1701C8.99992 14.4434 8.77325 14.6701 8.49992 14.6701H7.49992C7.22659 14.6701 6.99992 14.4434 6.99992 14.1701C6.99992 13.8967 7.21992 13.6767 7.49325 13.6701V12.6367C6.57992 12.5367 5.74659 12.1767 5.07325 11.6301L4.34659 12.3567L4.35325 12.3634C4.54659 12.5567 4.54659 12.8767 4.35325 13.0701C4.15992 13.2634 3.83992 13.2634 3.64659 13.0701L2.93325 12.3567C2.73992 12.1634 2.73992 11.8434 2.93325 11.6501C3.12659 11.4567 3.43992 11.4567 3.63325 11.6434L4.35992 10.9167C3.81325 10.2367 3.45325 9.41008 3.35992 8.49674H2.33325C2.33325 8.77008 2.10659 8.99674 1.83325 8.99674C1.55992 8.99674 1.33325 8.77008 1.33325 8.49674V7.49674C1.33325 7.22341 1.55992 6.99674 1.83325 6.99674C2.10659 6.99674 2.33325 7.22341 2.33325 7.49674H3.35992C3.45992 6.58341 3.81992 5.75674 4.35992 5.07674L3.63325 4.35008C3.43992 4.53674 3.12659 4.53674 2.93325 4.34341C2.73992 4.15008 2.73992 3.83008 2.93325 3.63674L3.63992 2.93008C3.83325 2.73674 4.15325 2.73674 4.34659 2.93008C4.53992 3.12341 4.53992 3.44341 4.34659 3.63674L4.33992 3.64341L5.06659 4.37008C5.74659 3.82341 6.57325 3.46341 7.48659 3.36341V2.33008C7.21325 2.32341 6.99325 2.10341 6.99325 1.83008C6.99992 1.55674 7.22659 1.33008 7.49992 1.33008H8.49992C8.77325 1.33008 8.99992 1.55674 8.99992 1.83008C8.99992 2.10341 8.77325 2.33008 8.49992 2.33008H8.49325V3.35674C9.40659 3.45008 10.2399 3.81674 10.9199 4.36341L11.6466 3.63674C11.4533 3.44341 11.4599 3.13008 11.6533 2.93674C11.8466 2.74341 12.1666 2.74341 12.3599 2.93674L13.0666 3.64341C13.2599 3.83674 13.2599 4.15674 13.0666 4.35008C12.8733 4.54341 12.5533 4.54341 12.3599 4.35008L12.3533 4.34341L11.6266 5.06341C12.1733 5.74341 12.5399 6.57674 12.6399 7.49674H13.6666C13.6666 7.22341 13.8933 6.99674 14.1666 6.99674C14.4399 6.99674 14.6666 7.22341 14.6666 7.49674ZM11.3333 7.99674C11.3333 6.15674 9.83992 4.66341 7.99992 4.66341C6.15992 4.66341 4.66659 6.15674 4.66659 7.99674C4.66659 9.83674 6.15992 11.3301 7.99992 11.3301C9.83992 11.3301 11.3333 9.83674 11.3333 7.99674ZM7.99992 7.33008C7.63325 7.33008 7.33325 7.63008 7.33325 7.99674C7.33325 8.36341 7.63325 8.66341 7.99992 8.66341C8.36659 8.66341 8.66659 8.36341 8.66659 7.99674C8.66659 7.63008 8.36659 7.33008 7.99992 7.33008ZM10.3333 7.33008C9.96659 7.33008 9.66659 7.63008 9.66659 7.99674C9.66659 8.36341 9.96659 8.66341 10.3333 8.66341C10.6999 8.66341 10.9999 8.36341 10.9999 7.99674C10.9999 7.63008 10.6999 7.33008 10.3333 7.33008ZM9.16659 9.33008C8.79992 9.33008 8.49992 9.63008 8.49992 9.99674C8.49992 10.3634 8.79992 10.6634 9.16659 10.6634C9.53325 10.6634 9.83325 10.3634 9.83325 9.99674C9.83325 9.63008 9.53325 9.33008 9.16659 9.33008Z" fill="white"/>
</svg>
