<svg width="20" height="20" viewBox="0 0 20 20" fill="none" xmlns="http://www.w3.org/2000/svg">
<path d="M7.63105 17.3093V14.7537C7.63104 14.1037 8.16097 13.5755 8.81755 13.5712H11.2226C11.8823 13.5712 12.4171 14.1006 12.4171 14.7537V14.7537V17.3173C12.417 17.8692 12.8619 18.3202 13.4192 18.3332H15.0226C16.621 18.3332 17.9167 17.0504 17.9167 15.468V15.468V8.19803C17.9082 7.57553 17.6129 6.99096 17.115 6.6107L11.6315 2.23759C10.6708 1.47614 9.30521 1.47614 8.34456 2.23759L2.88506 6.61863C2.38526 6.99736 2.08953 7.58289 2.08337 8.20597V15.468C2.08337 17.0504 3.3791 18.3332 4.97747 18.3332H6.58084C7.152 18.3332 7.61502 17.8748 7.61502 17.3093V17.3093" stroke="#6F61D0" stroke-width="1.5" stroke-linecap="round" stroke-linejoin="round"/>
</svg>
