<svg width="64" height="64" viewBox="0 0 64 64" fill="none" xmlns="http://www.w3.org/2000/svg">
<path fill-rule="evenodd" clip-rule="evenodd" d="M46.5063 16.6304C46.613 16.8169 46.7997 16.9501 47.0397 16.9501C53.4397 16.9501 58.6663 22.1709 58.6663 28.5638V44.3862C58.6663 50.7791 53.4397 56 47.0397 56H16.9597C10.533 56 5.33301 50.7791 5.33301 44.3862V28.5638C5.33301 22.1709 10.533 16.9501 16.9597 16.9501C17.173 16.9501 17.3863 16.8435 17.4663 16.6304L17.6263 16.3108C17.7183 16.1173 17.8126 15.9185 17.9084 15.7168C18.5906 14.2798 19.3453 12.6901 19.813 11.7558C21.0397 9.35849 23.1197 8.02664 25.7063 8H38.2663C40.853 8.02664 42.9597 9.35849 44.1863 11.7558C44.6063 12.5949 45.2462 13.9464 45.863 15.2491C45.9902 15.5179 46.1165 15.7847 46.2397 16.0444L46.5063 16.6304ZM44.5596 26.8591C44.5596 28.1909 45.6263 29.2564 46.9596 29.2564C48.2929 29.2564 49.3863 28.1909 49.3863 26.8591C49.3863 25.5272 48.2929 24.4351 46.9596 24.4351C45.6263 24.4351 44.5596 25.5272 44.5596 26.8591ZM27.3854 30.988C28.6388 29.7361 30.2654 29.0702 31.9988 29.0702C33.7321 29.0702 35.3588 29.7361 36.5854 30.9614C37.8121 32.1867 38.4788 33.8116 38.4788 35.543C38.4521 39.1123 35.5721 42.0158 31.9988 42.0158C30.2654 42.0158 28.6388 41.3499 27.4121 40.1246C26.1854 38.8992 25.5188 37.2744 25.5188 35.543V35.5163C25.4921 33.8382 26.1588 32.2133 27.3854 30.988ZM39.3853 42.9487C37.4919 44.8399 34.8786 46.012 31.9986 46.012C29.1986 46.012 26.5852 44.9198 24.5852 42.9487C22.6119 40.9509 21.5186 38.3405 21.5186 35.5436C21.4919 32.7733 22.5852 30.1629 24.5586 28.1651C26.5586 26.1673 29.1986 25.0752 31.9986 25.0752C34.7986 25.0752 37.4386 26.1673 39.4119 28.1385C41.3853 30.1363 42.4786 32.7733 42.4786 35.5436C42.4519 38.447 41.2786 41.0575 39.3853 42.9487Z" fill="#DFDEE7"/>
</svg>
