<svg width="64" height="64" viewBox="0 0 64 64" fill="none" xmlns="http://www.w3.org/2000/svg%22%3E
<path fill-rule="evenodd" clip-rule="evenodd" d="M46.5068 16.6304C46.6135 16.8169 46.8001 16.9501 47.0401 16.9501C53.4401 16.9501 58.6668 22.1709 58.6668 28.5638V44.3862C58.6668 50.7791 53.4401 56 47.0401 56H16.9601C10.5335 56 5.33347 50.7791 5.33347 44.3862V28.5638C5.33347 22.1709 10.5335 16.9501 16.9601 16.9501C17.1735 16.9501 17.3868 16.8435 17.4668 16.6304L17.6268 16.3108C17.7187 16.1173 17.8131 15.9185 17.9089 15.7168C18.5911 14.2798 19.3458 12.6901 19.8135 11.7558C21.0401 9.35849 23.1201 8.02664 25.7068 8H38.2668C40.8535 8.02664 42.9601 9.35849 44.1868 11.7558C44.6068 12.5949 45.2467 13.9464 45.8634 15.2491C45.9907 15.5179 46.117 15.7847 46.2401 16.0444L46.5068 16.6304ZM44.5601 26.8591C44.5601 28.1909 45.6267 29.2564 46.9601 29.2564C48.2934 29.2564 49.3867 28.1909 49.3867 26.8591C49.3867 25.5272 48.2934 24.4351 46.9601 24.4351C45.6267 24.4351 44.5601 25.5272 44.5601 26.8591ZM27.3859 30.988C28.6392 29.7361 30.2659 29.0702 31.9992 29.0702C33.7326 29.0702 35.3592 29.7361 36.5859 30.9614C37.8126 32.1867 38.4792 33.8116 38.4792 35.543C38.4526 39.1123 35.5726 42.0158 31.9992 42.0158C30.2659 42.0158 28.6392 41.3499 27.4126 40.1246C26.1859 38.8992 25.5192 37.2744 25.5192 35.543V35.5163C25.4926 33.8382 26.1592 32.2133 27.3859 30.988ZM39.3857 42.9487C37.4924 44.8399 34.879 46.012 31.999 46.012C29.199 46.012 26.5857 44.9198 24.5857 42.9487C22.6124 40.9509 21.519 38.3405 21.519 35.5436C21.4924 32.7733 22.5857 30.1629 24.559 28.1651C26.559 26.1673 29.199 25.0752 31.999 25.0752C34.799 25.0752 37.439 26.1673 39.4124 28.1385C41.3857 30.1363 42.479 32.7733 42.479 35.5436C42.4524 38.447 41.279 41.0575 39.3857 42.9487Z" fill="#DFDEE7"/>
</svg>