<svg width="30" height="30" viewBox="0 0 30 30" fill="none" xmlns="http://www.w3.org/2000/svg">
<path d="M21.836 17.171L16.3591 22.6479C13.7344 25.2726 9.47893 25.2726 6.85424 22.6479C4.22955 20.0232 4.22955 15.7678 6.85424 13.1431L14.2266 5.77077C15.9777 4.01964 18.8168 4.01964 20.5679 5.77077C22.3191 7.52189 22.3191 10.361 20.5679 12.1122L12.9634 19.7167C12.1406 20.5395 10.8067 20.5395 9.98395 19.7167C9.16121 18.894 9.16121 17.5601 9.98395 16.7373L15.6931 11.0282C15.983 10.7382 15.983 10.2682 15.6931 9.97825C15.4032 9.68832 14.9331 9.68832 14.6432 9.97825L8.93402 15.6874C7.53142 17.09 7.53142 19.3641 8.93402 20.7667C10.3366 22.1693 12.6107 22.1693 14.0133 20.7667L21.6179 13.1621C23.9489 10.8311 23.9489 7.05182 21.6179 4.72084C19.2869 2.38985 15.5076 2.38985 13.1766 4.72084L5.80431 12.0932C2.59975 15.2977 2.59975 20.4933 5.80431 23.6979C9.00886 26.9024 14.2045 26.9024 17.409 23.6979L22.8859 18.221C23.1758 17.931 23.1758 17.461 22.8859 17.171C22.596 16.8811 22.1259 16.8811 21.836 17.171Z" fill="#9E97BE"/>
</svg>
