<svg width="24" height="24" viewBox="0 0 24 24" fill="none" xmlns="http://www.w3.org/2000/svg">
<path fill-rule="evenodd" clip-rule="evenodd" d="M13.6 1L14.21 1.008L14.5117 1.00895L20.8 7.40594V21.709C20.8 22.8688 19.8598 23.809 18.7 23.809H6.1C4.9402 23.809 4 22.8688 4 21.709V3.10895C4 1.94916 4.9402 1.00895 6.1 1.00895L13.599 1.008L13.6 1ZM13.599 2.208L6.1 2.20895C5.60294 2.20895 5.2 2.6119 5.2 3.10895V21.709C5.2 22.206 5.60294 22.609 6.1 22.609H18.7C19.1971 22.609 19.6 22.206 19.6 21.709V8.249L15.7 8.20895C14.5402 8.20895 13.6 7.26875 13.6 6.10895L13.599 2.208ZM14.8 6.10895V3.0139L18.759 7.04093L15.7063 7.00899C15.2029 7.00895 14.8 6.60601 14.8 6.10895Z" fill="#6F61D0"/>
</svg>
