<svg width="81" height="48" viewBox="0 0 81 48" fill="none" xmlns="http://www.w3.org/2000/svg">
<path d="M11.4403 34.7808H0.620334L0 38.0717H3.4321L1.70826 47.3756H5.66094L7.3879 38.0717H10.82L11.4403 34.7808Z" fill="#EA564E"/>
<path d="M21.2815 35.8688C20.4274 35.1457 19.2293 34.783 17.6873 34.7808H12.4285L10.0844 47.3722H14.0277L14.6231 44.1951H15.5863L17.2447 47.3588H21.3564L19.3987 43.6761C20.3304 43.3345 21.1443 42.6985 21.7335 41.8515C22.2921 40.9966 22.5825 39.9729 22.5627 38.9288C22.5901 38.3462 22.4882 37.765 22.2655 37.233C22.0427 36.701 21.7055 36.2335 21.2815 35.8688ZM18.1082 40.5559C17.7516 40.8737 17.2958 41.0341 16.8332 41.0045H15.2091L15.764 38.055H17.0857C18.0666 38.055 18.5581 38.4813 18.5602 39.3339C18.5719 39.5621 18.5376 39.7903 18.4595 40.003C18.3815 40.2156 18.2617 40.4076 18.1082 40.5659V40.5559Z" fill="#EA564E"/>
<path d="M35.4743 37.1914C34.9746 36.328 34.2538 35.6376 33.3982 35.2028C32.4157 34.7087 31.3407 34.4636 30.256 34.4863C28.9325 34.4624 27.6239 34.7902 26.4468 35.4405C25.3519 36.0485 24.4397 36.9771 23.8158 38.1188C23.1789 39.3079 22.8556 40.6609 22.8806 42.0325C22.8626 43.0642 23.1154 44.0805 23.6101 44.9652C24.109 45.8285 24.8301 46.518 25.6862 46.9505C26.6687 47.4438 27.744 47.6867 28.8283 47.6603C30.1527 47.6853 31.4622 47.3587 32.6408 46.7095C33.7347 46.1012 34.6458 45.1726 35.2686 44.0312C35.9055 42.842 36.2288 41.489 36.2038 40.1175C36.2206 39.088 35.9678 38.0741 35.4743 37.1914ZM31.849 42.3003C31.6217 42.865 31.2539 43.3515 30.786 43.7064C30.3047 44.057 29.7339 44.2384 29.1525 44.2253C28.8462 44.2529 28.538 44.2087 28.2491 44.096C27.9603 43.9832 27.6976 43.8045 27.4792 43.5722C27.2608 43.3399 27.0919 43.0595 26.9842 42.7503C26.8765 42.4412 26.8324 42.1106 26.8551 41.7814C26.8473 41.1141 26.9738 40.4528 27.2261 39.8429C27.4534 39.2782 27.8212 38.7917 28.2891 38.4368C28.7716 38.0878 29.3442 37.9109 29.9256 37.9313C30.2317 37.9043 30.5395 37.9488 30.828 38.0618C31.1165 38.1748 31.3788 38.3535 31.5969 38.5858C31.8149 38.818 31.9835 39.0983 32.091 39.4072C32.1986 39.7161 32.2426 40.0464 32.2199 40.3753C32.2244 41.0379 32.0979 41.694 31.849 42.3003Z" fill="#EA564E"/>
<path d="M47.0301 35.8789C46.1698 35.149 44.9592 34.783 43.3985 34.7808H38.1865L35.8485 47.3722H39.8012L40.3717 44.2788H42.3948C43.4666 44.2994 44.53 44.071 45.512 43.6092C46.3584 43.2133 47.0804 42.5635 47.5912 41.7377C48.0831 40.9049 48.3357 39.9349 48.3175 38.9489C48.3444 38.3643 48.2417 37.7812 48.0179 37.2475C47.7941 36.7138 47.4555 36.2447 47.0301 35.8789ZM43.8661 40.5659C43.5081 40.8801 43.0525 41.0369 42.5911 41.0045H40.967L41.5219 38.055H42.8436C43.8266 38.055 44.3181 38.4813 44.3181 39.3339C44.3307 39.5622 44.2967 39.7907 44.2187 40.0035C44.1406 40.2162 44.0203 40.4082 43.8661 40.5659Z" fill="#EA564E"/>
<path d="M50.1193 34.7808L47.7751 47.3756H51.7278L54.072 34.7808H50.1193Z" fill="#EA564E"/>
<path d="M73.4613 34.7979L65.9799 47.3893H70.1539L71.3228 45.1964H75.7961L76.1826 47.3893H80.1197L77.3392 34.7979H73.4613ZM72.9594 42.1364L74.6832 38.9158L75.2537 42.1364H72.9594Z" fill="#EA564E"/>
<path d="M63.7448 37.0843L65.7742 42.2032L74.2874 27.3185C74.9043 27.985 75.5763 28.5901 76.2949 29.1263C77.4791 24.3897 79.0307 19.768 80.9334 15.3096C77.9916 18.9121 74.7185 22.1862 71.1639 25.0821L73.0623 26.4514L65.9861 35.5376L64.6021 31.0782L58.6045 39.9434L59.7298 34.7809H55.8426L53.4984 47.3724H57.3825L59.4524 44.0245L61.4038 47.3724H65.8085L61.7997 40.2079L63.7448 37.0843Z" fill="#EA564E"/>
<path d="M35.9981 28.1021C36.0382 28.0936 36.0795 28.0936 36.1196 28.1021C36.162 28.1145 36.2 28.1402 36.2287 28.1758C36.369 28.3198 36.3129 28.5106 36.1009 28.5742C36.0266 28.6044 35.9617 28.6567 35.9139 28.7248C35.8734 28.7818 35.8266 28.8219 35.8048 28.8186C35.7643 28.8272 35.7258 28.8444 35.6916 28.8691C35.6573 28.8938 35.628 28.9256 35.6053 28.9625C35.6053 28.9625 35.5616 29.1132 35.5149 29.2572C35.4276 29.5451 35.3341 29.7058 35.2032 29.756C35.1687 29.7678 35.1316 29.7678 35.0972 29.756C35.0531 29.7477 35.0133 29.7228 34.9849 29.6857C34.9849 29.6656 34.9631 29.6522 34.9507 29.6522C34.9382 29.6522 34.9195 29.6723 34.9226 29.7192C34.9138 29.7768 34.8944 29.8319 34.8655 29.8814C34.8366 29.9308 34.7988 29.9735 34.7543 30.0071C34.6732 30.0607 34.642 30.1678 34.614 30.4557C34.5922 30.5987 34.5922 30.7446 34.614 30.8876C34.6589 31.0927 34.6674 31.3051 34.6389 31.5136C34.6265 31.5645 34.6038 31.6118 34.5726 31.6522C34.5414 31.6927 34.5023 31.7254 34.4581 31.748H36.6028V27.5464C36.422 27.7171 36.21 27.8979 35.9981 28.1021Z" fill="#02BA78"/>
<path d="M36.0292 28.3795C36.0729 28.3795 36.1134 28.3795 36.1165 28.3561C36.1174 28.3519 36.1175 28.3476 36.1167 28.3433C36.1159 28.3391 36.1142 28.3351 36.1119 28.3316C36.1095 28.3281 36.1065 28.3252 36.103 28.3231C36.0995 28.321 36.0956 28.3197 36.0916 28.3193C36.0501 28.3149 36.0084 28.3255 35.9731 28.3494C35.9357 28.3728 35.9139 28.4029 35.9201 28.4163C35.9201 28.4163 35.9825 28.3829 36.0292 28.3795Z" fill="#02BA78"/>
<path d="M35.2997 29.3004L35.3372 29.1899L35.2623 29.2937C35.2213 29.3463 35.1858 29.4036 35.1563 29.4645C35.1345 29.5113 35.1314 29.5415 35.1563 29.5448C35.1813 29.5482 35.2499 29.441 35.2997 29.3004Z" fill="#02BA78"/>
<path d="M58.5203 11.2046C58.5203 11.2046 58.4985 11.2046 58.4829 11.2447C58.4673 11.2849 58.4829 11.2715 58.4829 11.2715C58.4917 11.2686 58.4997 11.2634 58.5063 11.2564C58.5128 11.2494 58.5176 11.2408 58.5203 11.2313C58.5203 11.2313 58.5234 11.2079 58.5203 11.2046Z" fill="#02BA78"/>
<path d="M58.8911 10.7865V10.7666C58.8827 10.7697 58.8752 10.7749 58.8693 10.7819C58.8633 10.7888 58.8591 10.7973 58.8569 10.8064H58.8756C58.8817 10.8007 58.8869 10.794 58.8911 10.7865Z" fill="#02BA78"/>
<path d="M58.8165 10.88V10.8633C58.8165 10.8633 58.7916 10.8834 58.7354 10.947L58.6731 11.0206L58.7417 10.9637C58.7791 10.9336 58.8134 10.9001 58.8165 10.88Z" fill="#02BA78"/>
<path d="M58.4392 11.3091C58.4353 11.3174 58.4333 11.3265 58.4333 11.3358C58.4333 11.345 58.4353 11.3542 58.4392 11.3625C58.4392 11.3625 58.4392 11.3625 58.4392 11.3358C58.4392 11.3091 58.4454 11.3124 58.4392 11.3091Z" fill="#02BA78"/>
<path d="M58.6045 11.1045C58.6045 11.1045 58.5827 11.1045 58.5671 11.1446C58.5515 11.1848 58.5671 11.1714 58.5671 11.1714C58.5752 11.1678 58.5825 11.1624 58.5885 11.1555C58.5944 11.1485 58.5988 11.1402 58.6014 11.1312C58.6045 11.1145 58.6045 11.1078 58.6045 11.1045Z" fill="#02BA78"/>
<path d="M64.923 7.95753C63.5924 5.48979 61.6499 3.46732 59.312 2.11545C56.8244 0.687217 54.04 -0.0396447 51.2196 0.00292731C48.3973 -0.0519158 45.6083 0.664653 43.1147 2.08532C40.7708 3.42913 38.8207 5.44591 37.4818 7.91066C37.169 8.48166 36.892 9.07444 36.6526 9.68505V0.471633H27.9991V7.75666C27.7435 5.79479 26.7792 4.18222 25.1063 2.91895C23.1237 1.42132 20.1945 0.672507 16.3187 0.672507L0.757396 0.625636L0.70752 31.905L17.1012 31.9352C21.0954 31.9352 24.1472 31.1886 26.2566 29.6954C26.9059 29.2437 27.4854 28.6857 27.9742 28.0416V31.7243H34.3116H34.2897C34.1463 31.6874 34.137 31.6841 33.9967 31.4698C33.9219 31.3493 33.8315 31.2154 33.8003 31.1786C33.7003 31.0222 33.6342 30.8437 33.6071 30.6563C33.5957 30.5763 33.5736 30.4985 33.5416 30.4253C33.5364 30.4156 33.5337 30.4046 33.5337 30.3935C33.5337 30.3823 33.5364 30.3713 33.5416 30.3617C33.545 30.3125 33.5376 30.2632 33.5198 30.2177C33.4992 30.122 33.4867 30.0245 33.4824 29.9264C33.4739 29.8085 33.4593 29.6911 33.4387 29.5749C33.4193 29.4646 33.4119 29.3523 33.4169 29.2401C33.4169 29.133 33.4169 28.989 33.4169 28.9053C33.4096 28.7872 33.4096 28.6686 33.4169 28.5505C33.4262 28.3977 33.4262 28.2445 33.4169 28.0918C33.4169 27.9579 33.3857 27.8039 33.3826 27.757C33.326 27.3085 33.3579 26.8522 33.4761 26.4178L33.5447 26.2337L33.819 26.294C33.9481 26.3237 34.0798 26.3383 34.2118 26.3375H34.3677H34.4144H34.4581H34.4768H34.5298L34.6233 26.3609H34.6451H34.7137H34.7511C34.7802 26.3609 34.7958 26.3609 34.7978 26.3609C34.8112 26.3645 34.8251 26.3645 34.8384 26.3609H35.3184C35.3371 26.3609 36.0354 25.8956 36.6214 25.4905V22.9762C36.861 23.5872 37.1369 24.181 37.4475 24.7539L37.4693 24.7941C37.9328 24.3283 38.4335 23.9071 38.9656 23.5353C39.4241 23.2314 39.9235 23.0055 40.4463 22.8657C40.4785 22.8511 40.5119 22.8398 40.5461 22.8322C40.5768 22.8213 40.6054 22.8043 40.6302 22.782C41.3051 21.8086 42.0338 20.8796 42.8123 19.9999C42.8583 19.9255 42.9083 19.854 42.9619 19.7857C43.0598 19.6572 43.1639 19.5343 43.2737 19.4174C43.3184 19.3769 43.3572 19.3295 43.389 19.2768C43.3904 19.269 43.3937 19.2617 43.3987 19.2558C43.4036 19.2499 43.41 19.2456 43.4171 19.2433C43.4703 19.2033 43.5195 19.1573 43.5636 19.106C43.5967 19.0734 43.627 19.0375 43.654 18.9989C43.654 18.7333 43.654 18.5257 43.654 18.3762C43.654 18.0816 43.6758 17.8305 43.6945 17.6263C43.6945 17.5794 43.6945 17.5325 43.6945 17.489V17.4622C43.6933 17.4422 43.6933 17.422 43.6945 17.402C43.7273 17.155 43.7881 16.9133 43.8753 16.6822C43.9207 16.5654 43.976 16.4533 44.0405 16.3474C44.0526 16.3163 44.0683 16.2871 44.0873 16.2603C44.0929 16.25 44.1003 16.2409 44.1091 16.2335C44.168 16.1441 44.2326 16.059 44.3024 15.9791C44.3398 15.9121 44.7076 15.5472 45.3996 14.8877C45.54 14.7412 45.6732 14.587 45.7986 14.4257C46.0681 14.0614 46.2992 13.6662 46.4876 13.2472C46.6372 12.9124 46.765 12.6279 46.8741 12.3667C46.9458 12.1859 46.9988 12.0319 47.0081 12.0018C47.034 11.9122 47.0663 11.8249 47.1048 11.7407C47.1233 11.7037 47.1399 11.6657 47.1547 11.6268L47.2232 11.4059C47.3334 11.0845 47.5412 10.0455 47.8467 8.28897L47.7937 8.26889L47.3853 8.11154C47.2511 8.06406 47.1208 8.00471 46.9957 7.9341C46.8816 7.8708 46.7627 7.81816 46.6403 7.77675C46.2819 7.6699 45.9462 7.48909 45.6521 7.24443C45.6017 7.18733 45.5366 7.1477 45.4651 7.1306L45.3092 7.10382C45.0164 7.03642 44.7136 7.03642 44.4208 7.10382C44.1725 7.16387 43.9172 7.18417 43.6633 7.16408C43.6062 7.16037 43.549 7.16037 43.4919 7.16408C43.3329 7.15138 43.1747 7.12902 43.0181 7.09712C42.7107 7.02774 42.3967 6.99851 42.0829 7.01008C41.8891 7.01438 41.6966 7.0436 41.5093 7.09712C41.4354 7.13948 41.3553 7.1678 41.2724 7.18082C41.0729 7.23439 41.0573 7.24443 40.9918 7.3683C40.8268 7.65249 40.5707 7.86206 40.2718 7.95753C40.1593 7.98595 40.0533 8.03832 39.96 8.11154C39.7823 8.25884 39.6982 8.29902 39.6047 8.27558C39.5018 8.2488 39.4737 8.1718 39.508 8.0044C39.5274 7.924 39.5631 7.84923 39.6127 7.78553C39.6623 7.72183 39.7245 7.67079 39.7948 7.63613C39.8385 7.61605 39.8665 7.59261 39.854 7.58926C39.6749 7.64208 39.511 7.74222 39.3771 7.88053C39.1994 8.03454 39.109 8.0948 39.0436 8.07806C38.9781 8.06132 38.9843 8.04458 38.9563 7.99771C38.9282 7.95084 38.9157 7.86044 38.9812 7.81357C39.0244 7.7726 39.0576 7.72087 39.0778 7.66292C39.1121 7.57637 39.1711 7.50371 39.2462 7.45535C39.3678 7.37165 39.427 7.31139 39.4083 7.30469C39.3753 7.31255 39.3437 7.32612 39.3148 7.34487C39.2431 7.38504 39.1433 7.43526 39.0903 7.4587C39.0373 7.48213 38.9469 7.53235 38.8877 7.56583C38.8218 7.60357 38.7465 7.61765 38.6726 7.606C38.6553 7.60409 38.639 7.5967 38.6257 7.58477C38.6124 7.57285 38.6026 7.55693 38.5978 7.53905C38.5963 7.52011 38.5963 7.50107 38.5978 7.48213C38.5961 7.47908 38.5953 7.47561 38.5953 7.47209C38.5953 7.46856 38.5961 7.4651 38.5978 7.46204C38.5978 7.46204 38.5978 7.43861 38.5978 7.42522C38.6075 7.39556 38.6159 7.36539 38.6227 7.33482C38.6316 7.30687 38.6465 7.28161 38.6664 7.26117L38.7412 7.18417L38.8378 7.12725L38.9532 7.04691L38.9843 7.02682L39.0436 6.99334L39.1495 6.94312H39.0436C39.0247 6.9505 39.0069 6.96064 38.9906 6.97325C38.9427 7.00983 38.8836 7.0254 38.8253 7.01677C38.7947 7.00843 38.7673 6.98963 38.7474 6.96321C38.7007 6.90295 38.7038 6.8929 38.7474 6.82594L38.7817 6.77238C38.7791 6.74567 38.7791 6.71874 38.7817 6.69203C38.7806 6.68314 38.7806 6.67413 38.7817 6.66524L38.8191 6.61837C38.8427 6.58467 38.8636 6.54882 38.8815 6.51124L38.9594 6.44763L39.0841 6.33045L39.1121 6.30702L39.162 6.28024L39.3179 6.20993C39.3397 6.14297 39.4207 6.05593 39.4675 6.06932C39.5526 6.07576 39.638 6.07576 39.7231 6.06932C39.8091 6.0592 39.8959 6.0592 39.9818 6.06932C40.0155 6.0793 40.0511 6.0793 40.0847 6.06932C40.2328 6.02515 40.3863 6.00595 40.5398 6.0124H40.5866H40.6084C40.6322 6.00925 40.6563 6.00925 40.6801 6.0124C40.7577 5.97158 40.8392 5.94014 40.9233 5.91866C40.9983 5.89093 41.0782 5.88178 41.1571 5.89188C41.1765 5.89603 41.1953 5.90278 41.2132 5.91197H41.2537C41.4467 5.92935 41.641 5.90893 41.8273 5.85171C41.8764 5.83975 41.9265 5.83302 41.9769 5.83162C42.0712 5.81907 42.1649 5.80119 42.2574 5.77805C42.4593 5.70874 42.6691 5.66932 42.8809 5.66087C42.9457 5.66236 43.0104 5.65675 43.0742 5.64414C43.1398 5.6301 43.2067 5.62337 43.2737 5.62405C43.3516 5.62405 43.5043 5.60396 43.6166 5.58722C43.7332 5.56712 43.8508 5.55371 43.9688 5.54705C44.032 5.54689 44.0949 5.53789 44.1559 5.52026C44.3675 5.47827 44.5834 5.4659 44.798 5.48344C44.8853 5.48344 45.0162 5.50352 45.0848 5.50352C45.1342 5.50423 45.1833 5.51097 45.2313 5.52361C45.2906 5.53827 45.349 5.55729 45.4059 5.58053C45.4681 5.60364 45.5316 5.62265 45.596 5.63744C45.9609 5.71793 46.3336 5.75053 46.7058 5.73453C46.8972 5.72729 47.0889 5.73513 47.2793 5.75796H47.323C47.5794 5.82199 47.8323 5.90135 48.0805 5.99566C48.1092 6.0109 48.1395 6.02215 48.1709 6.02914C48.3019 6.05939 48.4364 6.06842 48.5699 6.05593C48.8207 6.04891 49.0714 6.07023 49.318 6.11954C49.6179 6.15726 49.9008 6.28881 50.1316 6.49785C50.3251 6.66658 50.5417 6.8021 50.7738 6.8996L50.939 6.9699L50.992 6.98999C50.9999 6.99368 51.0084 6.99558 51.0169 6.99558C51.0255 6.99558 51.034 6.99368 51.0419 6.98999C51.0575 6.9699 51.1198 6.98999 51.1915 6.98999C51.261 7.00356 51.3276 7.0308 51.3879 7.07034C51.402 7.08461 51.4191 7.09496 51.4378 7.10047C51.4565 7.10047 51.4752 7.10047 51.5063 7.0603C51.6249 6.95631 51.7073 6.81239 51.7401 6.65185C51.7473 6.5341 51.7793 6.41963 51.8337 6.31706C51.8993 6.14739 51.9535 5.97284 51.9958 5.79479C52.0279 5.63868 52.0738 5.48622 52.1329 5.33948C52.2953 5.03862 52.4922 4.76081 52.719 4.51255C52.9194 4.33969 53.1576 4.22448 53.411 4.17776H53.6323C53.7215 4.18308 53.8102 4.19652 53.8973 4.21793C53.9933 4.23962 54.0873 4.27101 54.1778 4.31167C54.5606 4.41383 54.9073 4.63374 55.1754 4.94443C55.3337 5.10231 55.4544 5.29862 55.5276 5.51692C55.5933 5.64563 55.6122 5.79594 55.5806 5.93875C55.5557 6.1028 55.5432 6.13628 55.484 6.1731C55.4247 6.20993 55.4154 6.23337 55.4029 6.38737C55.4029 6.47776 55.3562 6.69203 55.3188 6.86277C55.2872 7.09045 55.1756 7.2965 55.007 7.43861C54.9727 7.47209 54.9696 7.50891 54.9852 7.62609C55.0289 7.92405 54.9852 8.04458 54.8044 8.07136C54.7634 8.08292 54.7272 8.10884 54.7015 8.14502C54.6755 8.18518 54.6367 8.21375 54.5924 8.22536C54.5363 8.22536 54.5114 8.26219 54.4833 8.33584C54.4571 8.41019 54.4269 8.48285 54.3929 8.55346C54.3615 8.63362 54.3365 8.7165 54.3181 8.8012C54.262 9.06569 54.1217 9.17282 53.916 9.13599C53.8196 9.10866 53.7279 9.06456 53.6448 9.00543C53.5147 8.91686 53.3728 8.85024 53.224 8.8079C53.1785 8.80019 53.1322 8.80019 53.0868 8.8079C52.9434 8.8079 52.7377 9.06904 52.6379 9.34356C52.588 9.48083 52.588 9.49087 52.6379 9.57792C52.6886 9.64582 52.7461 9.70756 52.8094 9.76205C53.037 9.96272 53.2255 10.2096 53.3642 10.4885C53.6035 10.9176 53.7226 11.4116 53.7071 11.9114C53.7071 12.0855 53.7071 12.2462 53.7071 12.2897C53.7246 12.3618 53.7542 12.4299 53.7944 12.4906C53.969 12.7952 53.9721 12.8053 53.9285 12.9191C53.9104 12.9569 53.901 12.9988 53.901 13.0413C53.901 13.0838 53.9104 13.1257 53.9285 13.1635C53.9527 13.2199 53.9694 13.2796 53.9783 13.341C53.996 13.4382 54.0221 13.5335 54.0563 13.6255C54.103 13.7628 54.1435 13.8934 54.1467 13.9067C54.1498 13.9201 54.1467 13.9067 54.1467 13.9067C54.2516 13.9186 54.3577 13.9072 54.4584 13.8733C54.5289 13.8549 54.601 13.8448 54.6735 13.8431C54.7732 13.8431 54.9385 13.813 55.0413 13.7929L55.353 13.7427C55.446 13.7283 55.5363 13.699 55.6211 13.6557C56.0701 13.3859 56.4948 13.0721 56.8899 12.7182C56.8899 12.6982 56.8899 12.5207 56.8899 12.3198C56.8798 12.1403 56.8988 11.9602 56.946 11.7875C56.9787 11.6971 56.9934 11.6003 56.9891 11.5035C56.9848 11.4066 56.9616 11.3117 56.921 11.2251C56.895 11.1862 56.8818 11.139 56.8836 11.0912C56.9019 11.0488 56.9334 11.0145 56.9726 10.9943C57.0119 10.9742 57.0565 10.9693 57.0987 10.9807C57.2201 11.0192 57.3284 11.0948 57.4104 11.1983C57.4699 11.2975 57.4943 11.4163 57.479 11.5331V11.6704L57.6099 11.5867C57.8042 11.442 57.9721 11.2605 58.1056 11.051C58.2351 10.8602 58.3823 10.6841 58.5451 10.5254C58.5997 10.469 58.6696 10.4327 58.7446 10.4216H58.8101C58.8413 10.4216 58.8568 10.4517 58.8849 10.5053C58.9086 10.5573 58.9193 10.6149 58.9161 10.6727C58.9161 10.7028 58.9161 10.7229 58.9161 10.7229C58.9161 10.7229 58.9566 10.7028 59.0221 10.6492C59.0875 10.5957 59.1436 10.5589 59.2091 10.5756H59.2496C59.3494 10.6057 59.3587 10.6191 59.3587 10.7129C59.3587 10.8066 59.34 10.8468 59.1499 11.0912C59.0732 11.179 59.0043 11.2742 58.9441 11.3757C59.0073 11.3236 59.0639 11.2628 59.1125 11.195C59.3057 10.9539 59.3494 10.9204 59.4429 10.9405C59.6362 10.9874 59.5052 11.3456 59.1779 11.657C59.1385 11.6904 59.1038 11.7299 59.0751 11.7741C59.0435 11.821 59.0069 11.8637 58.9659 11.9014C58.8101 12.0587 58.7664 12.1424 58.8007 12.206C58.8104 12.2203 58.825 12.23 58.8413 12.2328C58.9067 12.2328 59.0314 12.1926 59.259 12.0453C59.4398 11.9315 59.4928 11.9047 59.552 11.9214H59.5738C59.6704 11.9516 59.6954 12.0587 59.6393 12.1792C59.4635 12.3731 59.2413 12.511 58.9971 12.5776C58.8942 12.59 58.7978 12.6382 58.7228 12.7149C58.6875 12.7606 58.6478 12.8021 58.6043 12.8388C58.5203 12.8982 58.4447 12.9704 58.3799 13.053C58.3799 13.053 58.3799 13.0798 58.3269 13.1033C58.3012 13.1232 58.2781 13.1469 58.2583 13.1736C58.2363 13.2065 58.2088 13.2349 58.1773 13.2573C58.1097 13.3194 58.0366 13.3744 57.9591 13.4213C57.7761 13.5327 57.6001 13.6568 57.4323 13.7929C57.3169 13.8934 56.9771 14.2348 56.8618 14.3721C56.7457 14.493 56.6217 14.6048 56.4908 14.7069C56.3443 14.8241 56.1978 14.9479 56.1791 14.9781C56.0794 15.0655 55.9753 15.1471 55.8674 15.2225C55.7832 15.2814 55.7021 15.3451 55.6242 15.4133L55.2221 15.6945C55.1442 15.7347 54.9821 15.8318 54.8605 15.9121C54.704 16.0078 54.5415 16.0917 54.3742 16.1632C54.2809 16.1952 54.191 16.2378 54.1061 16.2905C54.0708 16.3181 54.0305 16.3375 53.9877 16.3474C53.9271 16.3722 53.8611 16.378 53.7975 16.3641C53.6822 16.3373 53.5793 16.2235 53.3985 15.9691C53.3268 15.8686 53.2333 15.738 53.1897 15.6845C53.1417 15.6147 53.1009 15.5394 53.0681 15.4602C52.9743 15.2664 52.8702 15.0786 52.7564 14.8977C52.6005 14.6567 52.3854 14.2817 52.2701 14.0641C52.1997 13.9152 52.1162 13.774 52.0207 13.6423C51.929 13.5117 51.8603 13.3642 51.8181 13.207C51.8181 13.1803 51.8181 13.1635 51.7963 13.1602C51.7744 13.1568 51.7588 13.1803 51.7246 13.2305C51.6602 13.3086 51.5904 13.3814 51.5157 13.4481C51.3754 13.5855 51.2442 13.7331 51.1229 13.89C51.052 13.9913 50.975 14.0875 50.8922 14.1779C50.8251 14.234 50.7698 14.3047 50.7302 14.3855C50.6889 14.4684 50.6376 14.5449 50.5774 14.6132C50.4995 14.7169 50.4028 14.8442 50.3685 14.9011C50.3343 14.958 50.2563 15.0484 50.2096 15.1019C50.1628 15.1555 50.0693 15.266 50.0038 15.3497C49.9317 15.4393 49.8546 15.5243 49.7732 15.6041C49.5838 15.8211 49.4487 16.086 49.3804 16.3741C49.212 16.8362 49.1996 16.9232 49.2837 16.9734L49.5768 17.1542C49.7042 17.2351 49.8377 17.3046 49.9758 17.3618C50.2921 17.5085 50.5922 17.6927 50.8704 17.9108C50.9608 17.9778 51.0855 18.0682 51.1479 18.105C51.2102 18.1418 51.2414 18.1653 51.2414 18.1954C51.9357 18.6428 52.58 19.1741 53.1616 19.779C53.3394 19.939 53.4721 20.1491 53.5448 20.3857C53.6175 20.6222 53.6273 20.8759 53.5731 21.1181C53.435 21.5772 53.1916 21.9916 52.8655 22.3234C51.807 23.4409 50.6892 24.4917 49.5175 25.4704C49.2259 25.8049 48.96 26.1643 48.7226 26.5451C48.7262 26.5549 48.7328 26.5632 48.7413 26.5685C48.7413 26.5685 48.7725 26.5484 48.8099 26.4881C48.9366 26.3339 49.099 26.2184 49.2806 26.1534C49.2876 26.1544 49.2947 26.1525 49.3005 26.1482C49.3063 26.1438 49.3103 26.1373 49.3118 26.1299C49.3118 26.1299 49.3461 26.1098 49.3835 26.1299C49.4209 26.15 49.4458 26.1601 49.4365 26.2136C49.4271 26.2672 49.3243 26.3542 49.2837 26.3442C49.2251 26.3667 49.1741 26.4075 49.1372 26.4614C49.1251 26.4814 49.1092 26.4986 49.0905 26.5116C48.9748 26.6174 48.875 26.7416 48.7943 26.8799C48.7728 26.9345 48.7697 26.9956 48.7856 27.0525C48.8016 27.1093 48.8355 27.1584 48.8816 27.1912C48.9221 27.1912 48.944 27.2314 48.9346 27.2414C48.9253 27.2515 48.9502 27.2749 49.0032 27.2849C49.0562 27.295 49.0998 27.2849 49.1092 27.2849C49.2908 27.2386 49.4777 27.2206 49.6641 27.2314C49.7107 27.2276 49.7576 27.2276 49.8043 27.2314C49.8186 27.2335 49.8321 27.2396 49.8436 27.249C49.855 27.2584 49.8641 27.2707 49.8698 27.2849C49.8885 27.3117 49.8916 27.3318 49.8698 27.3285H49.8417C49.8074 27.3285 49.7981 27.3285 49.8199 27.3553C49.8417 27.382 49.8542 27.3887 49.5082 27.4122C49.4082 27.4223 49.3091 27.4413 49.212 27.4691C49.1559 27.4943 49.0942 27.5012 49.0344 27.4892H48.9845L48.8847 27.449L48.9097 27.5327C48.9097 27.5796 48.9533 27.6833 48.9814 27.7637C49.0126 27.8452 49.0224 27.9344 49.0094 28.0215C48.997 28.1013 48.997 28.1827 49.0094 28.2625C49.0637 28.44 49.1631 28.5977 49.2962 28.7178C49.3305 28.7379 49.3523 28.7614 49.3492 28.7748C49.3461 28.7882 49.3492 28.8049 49.3835 28.8116C49.4178 28.8183 49.4209 28.8317 49.4178 28.8484C49.4147 28.8652 49.4334 28.8819 49.4645 28.8886C49.4957 28.8953 49.5144 28.912 49.5113 28.9288C49.5082 28.9455 49.5113 28.9622 49.5581 28.9689C49.6048 28.9756 49.6079 28.9924 49.6048 29.0091C49.7188 29.1185 49.8495 29.2057 49.9914 29.2669C50.03 29.2798 50.0657 29.3013 50.0961 29.3299C50.1266 29.3585 50.1511 29.3937 50.1681 29.4331C50.1851 29.4725 50.1943 29.5153 50.195 29.5588C50.1957 29.6022 50.1879 29.6454 50.1722 29.6854C50.1285 29.7992 49.9976 29.9365 49.9415 29.9231C49.8854 29.9097 49.9103 29.9231 49.9103 29.9231C49.6321 29.9469 49.3522 29.9163 49.0842 29.8327C48.9743 29.8198 48.8681 29.7821 48.7725 29.7222C48.7342 29.6881 48.6878 29.666 48.6385 29.6586C48.5761 29.6586 48.5262 29.6184 48.5294 29.6017C48.5325 29.585 48.4888 29.5649 48.4327 29.5515C48.3766 29.5381 48.3299 29.5113 48.3267 29.4845C48.3236 29.4577 48.2395 29.4008 48.1397 29.3473C48.0304 29.2865 47.9262 29.216 47.828 29.1363C47.7562 29.0738 47.6789 29.0189 47.5973 28.9723C47.5579 28.9542 47.5202 28.9317 47.4851 28.9053C47.4346 28.8684 47.3815 28.8359 47.3261 28.8082C47.2494 28.7689 47.1763 28.7218 47.1079 28.6676C47.0464 28.6173 46.9818 28.5714 46.9146 28.5304C46.8724 28.506 46.8326 28.4768 46.7962 28.4433C46.6669 28.3355 46.5304 28.2382 46.3878 28.1521C46.3085 28.1068 46.2325 28.0553 46.1603 27.9981C46.1134 27.9589 46.062 27.9262 46.0075 27.901C45.9857 27.901 45.9732 27.8775 45.9763 27.8641C45.9795 27.8507 45.9763 27.8273 45.9265 27.8206C45.8766 27.8139 45.8859 27.8005 45.8953 27.7838C45.9046 27.767 45.8953 27.757 45.8797 27.7503C45.8641 27.7436 45.8392 27.7269 45.8423 27.7135C45.8454 27.7001 45.8423 27.68 45.808 27.6733C45.7737 27.6666 45.7737 27.6499 45.7768 27.6365C45.7773 27.6325 45.777 27.6285 45.7759 27.6247C45.7749 27.6208 45.7732 27.6173 45.7709 27.6141C45.7686 27.611 45.7657 27.6084 45.7624 27.6065C45.7592 27.6046 45.7556 27.6034 45.7519 27.603C45.7081 27.5603 45.6727 27.5088 45.6475 27.4513C45.6224 27.3938 45.6081 27.3316 45.6054 27.2682C45.615 27.2353 45.6348 27.207 45.6615 27.1879C45.8559 27.0308 46.0355 26.8537 46.1977 26.6589C46.2444 26.5986 46.2974 26.535 46.3442 26.4848L46.899 26.0395C46.9832 26.0395 47.0019 26.0395 47.136 25.909C47.2038 25.8457 47.2663 25.7762 47.323 25.7014C47.323 25.6679 47.3604 25.6478 47.376 25.6512C47.3916 25.6545 47.4134 25.6311 47.4259 25.6043C47.4427 25.5733 47.4649 25.546 47.4913 25.524C47.6136 25.4133 47.7244 25.2887 47.8218 25.1523C47.8783 25.0712 47.9408 24.995 48.0088 24.9247C48.0659 24.8665 48.12 24.805 48.1709 24.7405C48.2236 24.6591 48.2853 24.5849 48.3548 24.5196C48.3829 24.5196 48.9533 23.773 49.0281 23.6558C49.0644 23.6007 49.1039 23.5481 49.1466 23.4985C49.2636 23.3322 49.3571 23.1484 49.424 22.9528C49.4861 22.7721 49.5644 22.5983 49.6578 22.4338C49.6765 22.4104 49.7202 22.3435 49.7576 22.2865C49.9003 22.0646 50.0667 21.8612 50.2532 21.6806C50.3337 21.589 50.4213 21.505 50.5151 21.4295L50.699 21.2755L50.7831 21.2052C50.6419 21.2133 50.5004 21.2133 50.3592 21.2052C50.0211 21.1941 49.6849 21.147 49.3554 21.0646H49.318C48.8473 20.9474 48.3205 20.7833 47.7313 20.5724C47.6672 20.5605 47.6051 20.538 47.5474 20.5055L47.0237 20.3046L46.977 20.2845C46.7716 20.5537 46.5431 20.8014 46.2943 21.0244C46.0615 21.261 45.1004 22.0578 43.4108 23.4148L43.3797 23.4349C43.3522 23.4563 43.3271 23.481 43.3048 23.5085C43.2909 23.5272 43.274 23.543 43.255 23.5554C43.1178 23.6994 42.8903 23.9504 42.5816 24.3053C42.4851 24.4061 42.3808 24.4979 42.2699 24.5798C42.1739 24.6496 42.0689 24.7037 41.9582 24.7405C41.7963 24.7872 41.63 24.8142 41.4625 24.8209C41.3657 24.8487 41.2718 24.8869 41.182 24.9347C40.3777 25.4034 39.48 25.8989 38.5012 26.4145C39.7344 28.1364 41.2915 29.56 43.071 30.5927C45.5617 32.0252 48.3509 32.7534 51.1759 32.7085C53.9985 32.7622 56.7874 32.0445 59.2808 30.6228C61.6243 29.2799 63.5744 27.2643 64.9137 24.8008C66.2911 22.2441 66.9978 19.3344 66.9586 16.3808C67.0019 13.427 66.2984 10.5159 64.923 7.95753ZM10.3991 8.0178L14.9627 8.03788C17.0981 8.03788 18.1642 8.81794 18.161 10.3814C18.1579 11.9449 17.1012 12.6747 14.9627 12.6714H10.3835L10.3991 8.0178ZM16.2813 24.5598H10.3585V19.645H16.2813C18.4447 19.645 19.5254 20.4664 19.5233 22.1091C19.5212 23.7518 18.4406 24.5687 16.2813 24.5598ZM27.9898 18.5503C26.9542 17.1859 25.5824 16.1615 24.0308 15.5941C25.2622 14.9775 26.3085 14.0034 27.0515 12.7819C27.5456 11.9337 27.8645 10.9815 27.9866 9.98971L27.9898 18.5503Z" fill="#02BA78"/>
</svg>
