<svg width="24" height="24" viewBox="0 0 24 24" fill="none" xmlns="http://www.w3.org/2000/svg">
<path fill-rule="evenodd" clip-rule="evenodd" d="M23.4 6.1C23.4 3.83563 21.5644 2 19.3 2H4.1C1.83563 2 0 3.83563 0 6.1V17.3C0 19.5644 1.83563 21.4 4.1 21.4H19.3C21.5644 21.4 23.4 19.5644 23.4 17.3V6.1ZM17.1034 13.0741L17.1964 12.993C17.5204 12.7471 17.9768 12.7473 18.3024 13.008L22.199 16.129L22.2 17.3C22.2 18.9016 20.9016 20.2 19.3 20.2L4.675 20.199L8.75642 16.1182L8.84255 16.0423C9.17179 15.7875 9.64062 15.79 9.96844 16.0628L11.4601 17.3038L11.5644 17.3808C11.9946 17.6607 12.5703 17.6071 12.9414 17.236L17.1034 13.0741ZM19.3 3.2H4.1C2.49837 3.2 1.2 4.49837 1.2 6.1V17.3C1.2 18.5654 2.01051 19.6416 3.14071 20.0376L7.9079 15.2697C8.63281 14.5448 9.76667 14.4545 10.5934 15.0315L10.7359 15.1403L12.1574 16.323L16.2549 12.2256C16.9697 11.5107 18.0844 11.4117 18.9099 11.9666L19.0525 12.0713L22.199 14.591L22.2 6.1C22.2 4.49837 20.9016 3.2 19.3 3.2ZM12.0929 16.3875L12.1574 16.323L12.2276 16.3813C12.1878 16.3483 12.1295 16.3509 12.0929 16.3875ZM7.2 6.3C8.69117 6.3 9.9 7.50883 9.9 9C9.9 10.4912 8.69117 11.7 7.2 11.7C5.70883 11.7 4.5 10.4912 4.5 9C4.5 7.50883 5.70883 6.3 7.2 6.3ZM5.7 9C5.7 8.17157 6.37157 7.5 7.2 7.5C8.02843 7.5 8.7 8.17157 8.7 9C8.7 9.82843 8.02843 10.5 7.2 10.5C6.37157 10.5 5.7 9.82843 5.7 9Z" fill="#6F61D0"/>
</svg>
