<svg width="31" height="31" viewBox="0 0 31 31" fill="none" xmlns="http://www.w3.org/2000/svg">
<path d="M27.687 3.33522C27.0409 2.6721 26.0847 2.42506 25.1931 2.6851L4.40167 8.73122C3.46095 8.99256 2.79418 9.7428 2.61456 10.6959C2.43107 11.6659 3.072 12.8972 3.90934 13.4121L10.4104 17.4077C11.0772 17.8173 11.9378 17.7146 12.4895 17.1581L19.9339 9.66739C20.3086 9.27732 20.9289 9.27732 21.3036 9.66739C21.6783 10.0445 21.6783 10.6556 21.3036 11.0456L13.8463 18.5376C13.2933 19.0928 13.1899 19.9575 13.5969 20.6284L17.5691 27.1946C18.0343 27.9748 18.8355 28.4168 19.7142 28.4168C19.8176 28.4168 19.9339 28.4168 20.0372 28.4038C21.0452 28.2738 21.8463 27.5847 22.1435 26.6095L28.3073 5.84468C28.5787 4.96052 28.3331 3.99835 27.687 3.33522Z" fill="#6F61D0"/>
</svg>
