<svg width="16" height="16" viewBox="0 0 16 16" fill="none" xmlns="http://www.w3.org/2000/svg">
<path d="M6.33333 5.33325V9.33325L9.46667 11.2666L10 10.4666L7.33333 8.86659V5.33325H6.33333Z" fill="white"/>
<path d="M11.6133 7.99992C11.6467 8.21992 11.6667 8.43992 11.6667 8.66659C11.6667 11.2666 9.6 13.3333 7 13.3333C4.4 13.3333 2.33333 11.2666 2.33333 8.66659C2.33333 6.06659 4.4 3.99992 7 3.99992C7.46667 3.99992 7.91333 4.06659 8.33333 4.19325V2.81992C7.90667 2.71992 7.46 2.66659 7 2.66659C3.66667 2.66659 1 5.33325 1 8.66659C1 11.9999 3.66667 14.6666 7 14.6666C10.3333 14.6666 13 11.9999 13 8.66659C13 8.43992 12.9867 8.21992 12.96 7.99992H11.6133Z" fill="white"/>
<path d="M13 3.33325V1.33325H11.6667V3.33325H9.66667V4.66659H11.6667V6.66659H13V4.66659H15V3.33325H13Z" fill="white"/>
</svg>
