<svg width="16" height="16" viewBox="0 0 16 16" fill="none" xmlns="http://www.w3.org/2000/svg">
<path d="M11.6666 5.99992C11.6666 3.97325 10.0266 2.33325 7.99992 2.33325C5.97325 2.33325 4.33325 3.97325 4.33325 5.99992C4.33325 7.79992 5.62659 9.28659 7.33325 9.59992V10.9999H5.99992V12.3333H7.33325V13.6666H8.66659V12.3333H9.99992V10.9999H8.66659V9.59992C10.3733 9.28659 11.6666 7.79992 11.6666 5.99992ZM5.66659 5.99992C5.66659 4.71325 6.71325 3.66659 7.99992 3.66659C9.28659 3.66659 10.3333 4.71325 10.3333 5.99992C10.3333 7.28659 9.28659 8.33325 7.99992 8.33325C6.71325 8.33325 5.66659 7.28659 5.66659 5.99992Z" fill="white"/>
</svg>
