<svg width="16" height="16" viewBox="0 0 16 16" fill="none" xmlns="http://www.w3.org/2000/svg">
<path d="M7.86889 15H7.1325C7.0092 14.9786 6.88282 14.9603 6.75953 14.9351C5.1277 14.6013 4.01094 13.3782 4.00601 11.8905C3.998 9.29367 3.998 6.69696 4.00601 4.10035C4.00601 3.55391 4.14472 3.03159 4.46652 2.56408C5.27997 1.38187 6.47841 0.84969 8.01407 1.03658C9.33766 1.19745 10.2599 1.8798 10.7553 2.98857C10.8786 3.26672 10.9205 3.57419 11 3.86824V12.1289C10.9803 12.2264 10.9612 12.324 10.9405 12.4213C10.6985 13.5558 9.97602 14.3472 8.77943 14.7824C8.4903 14.8868 8.17312 14.929 7.86889 15ZM4.85984 8.41264V8.54034C4.85984 9.65239 4.85984 10.7644 4.85984 11.8765C4.86096 11.9902 4.87043 12.1037 4.8882 12.2163C5.10736 13.6536 6.76446 14.6048 8.37687 14.1116C9.46065 13.7802 10.1363 12.9102 10.1394 11.8891C10.1425 10.7727 10.1394 9.65595 10.1394 8.53924V8.41264H4.85984ZM5.71459 5.00386H5.71182C5.71182 5.37299 5.70534 5.74212 5.71428 6.11098C5.71921 6.30966 5.8906 6.45188 6.10667 6.46421C6.30087 6.47518 6.48088 6.35268 6.52927 6.17099C6.54299 6.11317 6.54919 6.05414 6.54777 5.99506C6.54777 5.36614 6.54623 4.73722 6.54962 4.1083C6.55147 3.743 6.75429 3.48321 7.12048 3.33605C7.2558 3.28124 7.41577 3.27494 7.56558 3.25055C7.8057 3.21164 7.94749 3.05872 7.93239 2.85128C7.91851 2.65753 7.72987 2.50955 7.49499 2.50736C6.57027 2.49941 5.75528 3.18149 5.71737 4.00608C5.70195 4.33767 5.71459 4.67062 5.71459 5.00386Z" fill="white"/>
<path d="M6.10519 10.0011C6.33521 10.0011 6.56769 9.99696 6.80202 10.0061C6.83285 10.0061 6.87941 10.0707 6.89143 10.1123C7.09647 10.8249 7.29688 11.5387 7.49853 12.2522C7.50131 12.2613 7.50562 12.2698 7.51703 12.2968C7.66842 11.7663 7.81549 11.251 7.96226 10.7354C8.02392 10.5196 8.08158 10.3029 8.15034 10.0894C8.16015 10.0681 8.17513 10.0494 8.19406 10.0347C8.21298 10.02 8.2353 10.0098 8.25918 10.0049C8.48333 9.99695 8.70811 10.0011 8.95261 10.0011C8.83483 10.3534 8.72167 10.6884 8.60882 11.0249C8.39299 11.6685 8.1747 12.3115 7.96472 12.9568C7.93112 13.0602 7.88178 13.0934 7.77233 13.0884C7.58733 13.0802 7.40418 13.0916 7.22073 13.0825C7.17448 13.0802 7.10264 13.0399 7.09 13.0024C6.75546 12.0123 6.4274 11.0205 6.09872 10.0287C6.09625 10.0254 6.09964 10.019 6.10519 10.0011Z" fill="white"/>
</svg>
