<svg width="16" height="16" viewBox="0 0 16 16" fill="none" xmlns="http://www.w3.org/2000/svg">
<g clip-path="url(#clip0_5835_9594)">
<path d="M5.91113 1C5.85269 1.02435 5.79425 1.05073 5.73483 1.07305C5.48301 1.16942 5.27315 1.35616 5.14359 1.59915C5.01402 1.84214 4.97341 2.12517 5.02916 2.39654C5.13179 2.92816 5.60273 3.30152 6.15569 3.28985C6.69587 3.27818 7.13244 2.86425 7.2174 2.28544C7.29204 1.77816 6.95663 1.23335 6.46065 1.05986C6.4081 1.04109 6.35605 1.02029 6.30399 1H5.91113Z" fill="white"/>
<path d="M7.49533 6.39845L8.7579 7.18625C8.70191 7.24864 8.64298 7.31713 8.58062 7.38155C7.53887 8.45766 6.49795 9.5341 5.45784 10.6109C5.33311 10.7418 5.2123 10.8199 5.03109 10.7915C4.6122 10.7245 4.29448 10.8848 4.02143 11.2176C3.77933 11.5133 3.49402 11.7715 3.23031 12.049C2.92535 12.3691 2.92289 12.6608 3.22294 12.9748C3.48125 13.2457 3.74103 13.5156 4.00474 13.7809C4.29939 14.0761 4.59272 14.0734 4.88475 13.7727C5.21574 13.4334 5.53642 13.0834 5.87182 12.7486C6.04468 12.5766 6.13848 12.3793 6.10361 12.1398C6.05156 11.7781 6.19643 11.5346 6.44491 11.2851C7.61172 10.1117 8.75937 8.91708 9.90997 7.72751C10.017 7.61693 10.1157 7.55403 10.2724 7.58954C10.3777 7.60597 10.4845 7.60921 10.5906 7.59917C10.7435 7.59771 10.8897 7.53426 10.9978 7.42247C11.1058 7.31069 11.167 7.15954 11.1681 7.0016C11.1716 6.92111 11.1593 6.84071 11.132 6.76525C11.1047 6.68978 11.0628 6.62081 11.009 6.56248C10.9552 6.50414 10.8905 6.45765 10.8189 6.4258C10.7472 6.39395 10.6701 6.3774 10.5921 6.37714C9.87658 6.36598 9.21116 6.16206 8.63218 5.74507C8.26092 5.47824 7.94958 5.12112 7.62056 4.79494C7.44966 4.62551 7.3097 4.42209 7.13586 4.25722C6.74742 3.88894 6.29366 3.77531 5.79718 3.98279C5.3007 4.19026 5.02127 4.57884 5.01489 5.13127C5.00163 6.28076 5.00654 7.43076 5.01489 8.58076C5.01784 9.02209 5.19512 9.3924 5.51874 9.73076C5.79521 9.44161 6.06334 9.15905 6.33344 8.87904C6.66835 8.53155 7.01309 8.1932 7.33524 7.83354C7.42562 7.72284 7.47961 7.58535 7.48944 7.4409C7.50957 7.09849 7.49533 6.75506 7.49533 6.39845Z" fill="white"/>
<path d="M9.76911 8.80444L8.43043 10.1995C8.6961 10.1995 8.96227 10.1822 9.2245 10.2066C9.36427 10.2174 9.49721 10.2733 9.6046 10.3663C10.0603 10.8138 10.4964 11.2825 10.9438 11.7385C11.1962 11.9962 11.4874 12.0348 11.7393 11.8588C11.8118 11.8102 11.8728 11.7453 11.9175 11.6689C11.9623 11.5925 11.9897 11.5067 11.9978 11.4178C12.0058 11.3289 11.9942 11.2393 11.9639 11.1556C11.9336 11.072 11.8854 10.9966 11.8228 10.935C11.1432 10.2182 10.4527 9.5126 9.76911 8.80444Z" fill="white"/>
</g>
<defs>
<clipPath id="clip0_5835_9594">
<rect width="9" height="13" fill="white" transform="matrix(-1 0 0 1 12 1)"/>
</clipPath>
</defs>
</svg>
